<?xml version="1.0" encoding="UTF-8"?>
<svg version="1.1" xmlns="http://www.w3.org/2000/svg" width="1536" height="1024">
<path d="M0 0 C506.88 0 1013.76 0 1536 0 C1536 337.92 1536 675.84 1536 1024 C1029.12 1024 522.24 1024 0 1024 C0 686.08 0 348.16 0 0 Z " fill="#282E3F" transform="translate(0,0)"/>
<path d="M0 0 C0.98162109 -0.02449219 1.96324219 -0.04898437 2.97460938 -0.07421875 C10.04388634 -0.10229 15.33127989 1.35329802 21.6875 4.375 C23.0796875 4.95314453 23.0796875 4.95314453 24.5 5.54296875 C35.96852282 10.88811957 45.62742795 20.27457139 50.2265625 32.16796875 C54.03674143 42.81888631 54.03674143 42.81888631 53.6875 48.375 C54.96625 48.436875 56.245 48.49875 57.5625 48.5625 C65.62389138 49.46385242 73.05429031 53.61376282 78.6875 59.375 C83.03414596 65.32029219 85.86275927 71.03850041 86.6875 78.375 C86.86345703 79.62023437 86.86345703 79.62023437 87.04296875 80.890625 C87.78266542 90.43689904 83.37085262 98.31642184 77.8984375 105.83203125 C71.74931071 112.67457021 62.70899661 116.89833576 53.6875 118.375 C51.72682135 118.4673825 49.76345896 118.50972982 47.8006134 118.51544189 C46.62179596 118.52115204 45.44297852 118.52686218 44.22843933 118.53274536 C42.94367203 118.53386322 41.65890472 118.53498108 40.33520508 118.53613281 C38.96154651 118.54076481 37.58788921 118.54578998 36.2142334 118.55117798 C32.48877071 118.56426886 28.76332602 118.57074067 25.03784394 118.57518864 C22.70683887 118.57812524 20.37583866 118.58223119 18.04483604 118.58669281 C10.74165649 118.60036018 3.4384881 118.61003006 -3.86470336 118.6138947 C-12.2763094 118.61837111 -20.6877526 118.63590275 -29.09930915 118.6648953 C-35.61331612 118.6865628 -42.12727745 118.69660171 -48.64132005 118.69793582 C-52.52607737 118.6989804 -56.41068145 118.70481356 -60.29540062 118.72275543 C-63.95377682 118.73932369 -67.61188604 118.74134961 -71.27028656 118.73261642 C-73.23880975 118.73148798 -75.20732443 118.74513825 -77.17579651 118.7593689 C-90.32835529 118.69796593 -100.38441052 115.30274674 -110.38671875 106.5625 C-118.5297963 98.08380754 -121.00792714 88.33995396 -120.84057617 76.89599609 C-120.56835338 70.79014928 -119.37403285 65.72205216 -116.3125 60.375 C-115.735 59.323125 -115.1575 58.27125 -114.5625 57.1875 C-109.49341693 50.85114616 -102.94091943 45.3469336 -95.3125 42.375 C-92.54296875 42.24609375 -92.54296875 42.24609375 -90.3125 42.375 C-90.10625 41.385 -89.9 40.395 -89.6875 39.375 C-87.59393173 32.19289775 -82.82052726 26.96545284 -76.375 23.33984375 C-69.59547094 20.16835951 -61.29494338 18.81691633 -54.0390625 21.0859375 C-53.34554687 21.36695313 -52.65203125 21.64796875 -51.9375 21.9375 C-48.65633016 23.53462469 -48.65633016 23.53462469 -46.34765625 23.2578125 C-43.46677864 22.00814198 -42.10858664 20.10465748 -40.125 17.6875 C-29.43124682 5.39844922 -16.01955676 0.02079112 0 0 Z " fill="#2A3141" transform="translate(771.3125,324.625)"/>
<path d="M0 0 C3.0164221 1.11388094 5.76029052 2.61911462 8.5625 4.1875 C9.38693604 4.63528809 10.21137207 5.08307617 11.06079102 5.54443359 C18.18662392 9.45385144 25.1840945 13.58424218 32.16113281 17.75195312 C39.82332345 22.32853734 47.55567834 26.77425206 55.3125 31.1875 C62.84120817 35.47283456 70.36187058 39.767277 77.8125 44.1875 C84.28455398 48.02530596 90.81932056 51.74449232 97.375 55.4375 C112.70084984 64.07100348 127.89181305 72.93017696 143.08203125 81.79956055 C149.35914657 85.46372602 155.64426285 89.11360369 161.9375 92.75 C167.70112591 96.08133614 173.45241114 99.43227027 179.1875 102.8125 C194.14852404 111.62612872 209.12273436 120.41135831 224.25 128.9375 C225.20680664 129.47713379 226.16361328 130.01676758 227.14941406 130.57275391 C228.9547472 131.5908299 230.76008544 132.60889683 232.56542969 133.62695312 C233.36883789 134.08005859 234.17224609 134.53316406 235 135 C235.70801758 135.39896484 236.41603516 135.79792969 237.14550781 136.20898438 C238.89194135 137.19606046 240.63374332 138.19132005 242.375 139.1875 C243.26960938 139.69667969 244.16421875 140.20585937 245.0859375 140.73046875 C247 142 247 142 248 144 C248.375 147.3125 248.375 147.3125 248 151 C243.93399935 155.96401306 238.5903456 159.020656 233.1875 162.375 C232.22481201 162.98005371 231.26212402 163.58510742 230.27026367 164.20849609 C227.18431789 166.14570273 224.09252599 168.0733187 221 170 C218.96067967 171.27562958 216.92161534 172.5516685 214.8828125 173.828125 C210.8390413 176.35836576 206.79324186 178.88532088 202.74609375 181.41015625 C190.78896985 188.87417998 178.88967782 196.4291517 167 204 C153.09943271 212.8512984 139.16893985 221.65194776 125.1875 230.375 C117.43402504 235.212454 109.70344033 240.08326565 102 245 C93.28368776 250.56320164 84.52730514 256.05952003 75.75439453 261.53295898 C61.86435029 270.20042775 48.03713739 278.96557622 34.23046875 287.76513672 C29.66860254 290.67130432 25.10195532 293.56934256 20.5234375 296.44921875 C19.65589844 296.99513672 18.78835938 297.54105469 17.89453125 298.10351562 C16.26006716 299.13107405 14.62470318 300.157203 12.98828125 301.18164062 C10.13130704 302.97795686 7.33853907 304.73801499 4.66796875 306.8046875 C2.06077989 308.67307109 0.09827894 308.4614458 -3 308 C-5.52231206 305.81399622 -5.94120588 304.34541543 -6.5 301.0625 C-5.85208769 297.09403707 -3.99803585 295.45154624 -1 293 C2.04727727 290.91008925 5.20348844 289.01939872 8.375 287.125 C16.13858717 282.40940503 23.79224363 277.5635192 31.375 272.5625 C40.13744594 266.79877101 49.02047509 261.27302452 57.99853516 255.85229492 C64.81319034 251.73567012 71.52492777 247.4951058 78.20214844 243.16015625 C81.74443298 240.87431484 85.31027865 238.62562824 88.875 236.375 C89.66769287 235.87452148 90.46038574 235.37404297 91.27709961 234.85839844 C97.77654731 230.76076734 104.29386521 226.69201232 110.8125 222.625 C120.50163624 216.579047 130.14775056 210.46834557 139.77734375 204.328125 C150.68451895 197.37352239 161.62670884 190.47563379 172.60449219 183.63305664 C182.14640715 177.68439918 191.65620499 171.68947666 201.125 165.625 C202.17204102 164.95500977 203.21908203 164.28501953 204.29785156 163.59472656 C208.73902448 160.74869262 213.17370305 157.89483215 217.578125 154.9921875 C218.23409668 154.56212402 218.89006836 154.13206055 219.56591797 153.68896484 C221.2221878 152.60043123 222.87309449 151.50374858 224.5234375 150.40625 C227 149 227 149 230 149 C230 148.34 230 147.68 230 147 C229.17870605 146.84180786 229.17870605 146.84180786 228.34082031 146.68041992 C225.47777658 145.84820227 223.1520039 144.56644513 220.546875 143.11328125 C219.46486816 142.51169189 218.38286133 141.91010254 217.26806641 141.2902832 C216.09522688 140.63129031 214.92254195 139.97202222 213.75 139.3125 C212.53441564 138.6329257 211.31875708 137.95348412 210.10302734 137.27416992 C200.23388935 131.74633143 190.45749098 126.06361316 180.703125 120.3359375 C175.28583562 117.15781885 169.83538539 114.04081818 164.375 110.9375 C150.77061764 103.19279392 137.30992341 95.20729973 123.90405273 87.12451172 C117.28128426 83.13275734 110.66836859 79.17099 103.84765625 75.5234375 C88.67520743 67.40648957 73.84016273 58.70407907 59 50 C46.04710813 42.40620863 33.08394139 34.83787365 19.98071289 27.50537109 C15.8222811 25.17699822 11.6862378 22.83463112 7.625 20.33984375 C6.98062988 19.94974121 6.33625977 19.55963867 5.67236328 19.15771484 C4.02063876 18.15124429 2.38078719 17.12535656 0.7421875 16.09765625 C-1.91349016 14.69714597 -1.91349016 14.69714597 -4.35449219 15.75195312 C-7.01729832 17.00816067 -9.53412608 18.37590069 -12.0703125 19.87109375 C-13.03904297 20.43957031 -14.00777344 21.00804687 -15.00585938 21.59375 C-16.03517578 22.2021875 -17.06449219 22.810625 -18.125 23.4375 C-20.30452461 24.71772527 -22.48421386 25.99767028 -24.6640625 27.27734375 C-26.28103027 28.22843018 -26.28103027 28.22843018 -27.93066406 29.19873047 C-32.10968277 31.65122809 -36.30335812 34.07782611 -40.5 36.5 C-47.5719744 40.58797751 -54.63234058 44.69557364 -61.6875 48.8125 C-62.69828613 49.40232666 -63.70907227 49.99215332 -64.75048828 50.59985352 C-69.81756974 53.55732373 -74.88374479 56.51633997 -79.94921875 59.4765625 C-93.50506879 67.39560316 -107.09184001 75.25962764 -120.69580078 83.09570312 C-124.02614252 85.01506662 -127.35509148 86.93682353 -130.68359375 88.859375 C-141.44992973 95.07741234 -152.22485751 101.27935096 -163.02416992 107.43994141 C-174.37322939 113.91862874 -185.68554801 120.46112839 -197 127 C-198.29550781 127.74830078 -198.29550781 127.74830078 -199.6171875 128.51171875 C-205.0816688 131.66838513 -210.54246272 134.83134361 -216 138 C-216.99402832 138.5770166 -217.98805664 139.1540332 -219.01220703 139.74853516 C-222.23827803 141.62235495 -225.46306607 143.49836476 -228.6875 145.375 C-229.69184082 145.95838135 -230.69618164 146.5417627 -231.73095703 147.14282227 C-236.68665451 150.03038419 -241.58340316 152.95403978 -246.35473633 156.13916016 C-248 157 -248 157 -251 157 C-251 220.03 -251 283.06 -251 348 C-249.02 348.66 -247.04 349.32 -245 350 C-242.47540902 351.39064062 -240.01975503 352.81275859 -237.5625 354.3125 C-230.74532936 358.39903807 -223.86846827 362.35968419 -216.9375 366.25 C-208.99528311 370.71506675 -201.10587839 375.2598499 -193.25 379.875 C-184.58876254 384.95929584 -175.85345266 389.8949858 -167.0625 394.75 C-156.94299771 400.34305027 -146.90262689 406.03142094 -137 412 C-135.80165527 412.72026367 -135.80165527 412.72026367 -134.57910156 413.45507812 C-132.0706807 414.96533843 -129.56580645 416.48127941 -127.0625 418 C-126.28575928 418.46954102 -125.50901855 418.93908203 -124.70874023 419.42285156 C-123.99145752 419.86081055 -123.2741748 420.29876953 -122.53515625 420.75 C-121.899729 421.13671875 -121.26430176 421.5234375 -120.60961914 421.921875 C-119 423 -119 423 -117 425 C-116.48311723 428.27359086 -116.70326351 429.57772115 -118.625 432.3125 C-121.70391543 434.50015044 -123.27080577 434.33142055 -127 434 C-129.7097168 432.81005859 -129.7097168 432.81005859 -132.44921875 431.1484375 C-133.46306641 430.54386719 -134.47691406 429.93929688 -135.52148438 429.31640625 C-136.56626953 428.67574219 -137.61105469 428.03507812 -138.6875 427.375 C-140.75299108 426.13129136 -142.81939301 424.88909413 -144.88671875 423.6484375 C-145.90886475 423.03266846 -146.93101074 422.41689941 -147.98413086 421.7824707 C-151.6980672 419.58742098 -155.47109701 417.5212281 -159.26831055 415.47460938 C-175.27079268 406.83621523 -191.01810309 397.7210162 -206.75390625 388.609375 C-212.54998667 385.25445467 -218.36646264 381.93636217 -224.1875 378.625 C-230.82713172 374.84557505 -237.41233542 370.99178641 -243.93945312 367.02124023 C-248.44535296 364.29209289 -253.04125467 361.78534899 -257.73046875 359.38671875 C-260.40236266 357.75415018 -262.06068081 356.48862785 -264 354 C-264.39493466 351.1388171 -264.54491037 348.6618596 -264.5146637 345.80126953 C-264.52160922 344.96762941 -264.52855475 344.1339893 -264.53571075 343.27508736 C-264.55402972 340.47739148 -264.54370301 337.6805389 -264.53344727 334.8828125 C-264.54050322 332.87887943 -264.54924687 330.87495169 -264.55955505 328.87103271 C-264.58209382 323.42480668 -264.57909898 317.97887063 -264.57023358 312.53261566 C-264.56513099 307.98959178 -264.57241025 303.44662274 -264.57970566 298.90360451 C-264.5967186 288.18894298 -264.59312433 277.47442382 -264.57641602 266.75976562 C-264.55948752 255.69652282 -264.57533625 244.63367436 -264.6076389 233.57047462 C-264.63430482 224.07908516 -264.64161907 214.58781867 -264.63312382 205.09639549 C-264.62818656 199.42438379 -264.63045359 193.7526095 -264.65091133 188.08062744 C-264.66922166 182.74860223 -264.66336658 177.41714601 -264.63871193 172.08515167 C-264.63368952 170.12596167 -264.63723066 168.16672866 -264.64986038 166.20757294 C-264.66571536 163.53729824 -264.65091271 160.86891467 -264.62818909 158.19873047 C-264.64594268 157.02967006 -264.64594268 157.02967006 -264.66405493 155.83699226 C-264.5980004 152.02905716 -264.36531203 150.37357543 -261.65727139 147.60427856 C-258.53030549 145.71643061 -255.39628992 143.86922943 -252.1875 142.125 C-245.10297996 138.21013552 -238.10579078 134.15921338 -231.125 130.0625 C-224.08561894 125.93721526 -217.02694887 121.86450525 -209.875 117.9375 C-202.40303101 113.83002302 -195.06163259 109.52276711 -187.73168945 105.16772461 C-171.45818987 95.50809879 -155.02639165 86.12389341 -138.53662109 76.83935547 C-130.71254232 72.42442615 -122.94783167 67.9122177 -115.1953125 63.37304688 C-107.77376052 59.02860668 -100.32912252 54.7257811 -92.875 50.4375 C-83.98958277 45.3227878 -75.14388534 40.1467041 -66.32763672 34.91381836 C-59.25006393 30.7203405 -52.13124924 26.60142463 -45 22.5 C-36.49427726 17.60691272 -28.01090899 12.67897517 -19.5625 7.6875 C-18.17708008 6.86958984 -18.17708008 6.86958984 -16.76367188 6.03515625 C-5.61983795 -0.56483651 -5.61983795 -0.56483651 0 0 Z " fill="#F8F8F9" transform="translate(770,247)"/>
<path d="M0 0 C4.81632776 0.48163278 5.68568738 1.69782486 8.75 5.375 C9.67232422 6.29925781 9.67232422 6.29925781 10.61328125 7.2421875 C13.81263788 10.53771717 15.59281993 12.44763762 16.375 17.0625 C15.72183672 20.52426537 14.98007112 22.64935752 12.75 25.375 C11.76 25.375 10.77 25.375 9.75 25.375 C9.79407473 39.87558592 13.98779697 51.45750667 23.75 62.375 C24.28625 62.024375 24.8225 61.67375 25.375 61.3125 C28.63153297 60.02702646 30.41768683 60.35894586 33.75 61.375 C36.0859375 63.484375 36.0859375 63.484375 38.125 66.125 C38.81335938 66.98609375 39.50171875 67.8471875 40.2109375 68.734375 C41.93338455 71.68963948 42.25029458 73.02196184 41.75 76.375 C40.796875 78.7265625 40.796875 78.7265625 39.5 81 C39.08234375 81.75539063 38.6646875 82.51078125 38.234375 83.2890625 C35.43292353 87.22583904 32.11898291 88.62740684 27.75 90.375 C27.110625 90.91125 26.47125 91.4475 25.8125 92 C22.93485727 93.91842849 21.13956745 93.86931192 17.75 93.375 C15.3125 91.75 15.3125 91.75 13.75 89.375 C13.90920228 85.47454411 14.57082779 83.64375831 16.75 80.375 C15.76157104 80.41427612 15.76157104 80.41427612 14.75317383 80.4543457 C-9.31583614 81.2844565 -9.31583614 81.2844565 -20.25 75.375 C-25.55426847 72.32388522 -25.55426847 72.32388522 -31.5 71.5 C-34.19090435 72.27197764 -34.19090435 72.27197764 -36.3125 73.4375 C-38.72952046 74.60702603 -40.59911857 74.52227119 -43.25 74.375 C-43.53875 75.096875 -43.8275 75.81875 -44.125 76.5625 C-44.79199211 78.22998027 -45.49714987 79.88427852 -46.28125 81.5 C-47.59283774 85.39245394 -47.71075322 89.10528319 -47.875 93.1875 C-47.93300781 94.36989258 -47.93300781 94.36989258 -47.9921875 95.57617188 C-48.08588844 97.5087538 -48.16900779 99.44184376 -48.25 101.375 C-47.59 101.045 -46.93 100.715 -46.25 100.375 C-41.01940574 99.95987347 -41.01940574 99.95987347 -38.25 100.375 C-36.375 102.125 -36.375 102.125 -35.25 104.375 C-34.6621875 105.3340625 -34.6621875 105.3340625 -34.0625 106.3125 C-33.02098679 108.95634122 -32.75718943 110.55893961 -33.25 113.375 C-36.00615725 116.13115725 -38.36497836 117.79944124 -42.25 118.375 C-42.270625 119.1175 -42.29125 119.86 -42.3125 120.625 C-43.47658389 124.03964607 -45.16880722 125.12338954 -48.359375 126.69921875 C-51.53430575 127.8340597 -53.09607082 127.59795213 -56.25 126.375 C-59.12530062 124.24409539 -61.67257619 121.85186723 -64.25 119.375 C-65.735 118.1375 -65.735 118.1375 -67.25 116.875 C-69.25 114.375 -69.25 114.375 -69.75 110.75 C-69.25 107.375 -69.25 107.375 -67.9375 105.4375 C-66.25 104.375 -66.25 104.375 -63.25 104.375 C-65.22270104 99.4742647 -67.47244794 95.19225709 -70.375 90.75 C-70.76534424 90.15243896 -71.15568848 89.55487793 -71.55786133 88.93920898 C-72.77971757 87.07841611 -74.01236712 85.22533212 -75.25 83.375 C-75.84385498 82.48627197 -75.84385498 82.48627197 -76.44970703 81.57958984 C-82.90578471 70.35985126 -82.90578471 70.35985126 -92.35546875 62.640625 C-92.98066406 62.55296875 -93.60585938 62.4653125 -94.25 62.375 C-94.745 62.87 -94.745 62.87 -95.25 63.375 C-99.00985686 64.01954689 -100.19278998 63.41504701 -103.375 61.1875 C-107.07512281 58.03739545 -109.06619215 54.82062392 -109.68359375 49.96484375 C-109.68488281 48.75957031 -109.68617188 47.55429687 -109.6875 46.3125 C-109.70683594 45.10464844 -109.72617187 43.89679687 -109.74609375 42.65234375 C-109.16205849 38.79403207 -108.22743083 37.78426054 -105.25 35.375 C-104.425 34.55 -103.6 33.725 -102.75 32.875 C-101.5125 31.6375 -101.5125 31.6375 -100.25 30.375 C-99.651875 29.6325 -99.05375 28.89 -98.4375 28.125 C-95.2559027 25.57972216 -92.27176305 25.19979448 -88.25 25.375 C-85.25 26.3125 -85.25 26.3125 -83.25 28.375 C-82.37763869 32.79190306 -82.74572727 35.61859091 -85.25 39.375 C-84.67636719 39.29378906 -84.10273437 39.21257813 -83.51171875 39.12890625 C-75.45856491 38.53011332 -69.17476974 40.95157651 -61.8894043 44.06079102 C-57.26053052 46.0630723 -57.26053052 46.0630723 -52.3671875 45.7109375 C-50.64517109 44.6243515 -48.94420022 43.50446681 -47.25 42.375 C-43.82982443 41.97541513 -40.37706959 41.8114652 -37.25 43.375 C-37.023125 42.55 -36.79625 41.725 -36.5625 40.875 C-32.82502012 30.90838698 -25.67253286 23.69189964 -17.25 17.375 C-17.91 16.67375 -18.57 15.9725 -19.25 15.25 C-21.56881474 11.91670381 -21.77981019 10.34857645 -21.25 6.375 C-18.47656726 3.60156726 -15.41238862 3.46617126 -11.6875 2.8125 C-7.58449719 2.07373218 -3.92521839 0.45290981 0 0 Z " fill="#F9F9F9" transform="translate(679.25,500.625)"/>
<path d="M0 0 C0.98162109 -0.02449219 1.96324219 -0.04898437 2.97460938 -0.07421875 C10.04388634 -0.10229 15.33127989 1.35329802 21.6875 4.375 C23.0796875 4.95314453 23.0796875 4.95314453 24.5 5.54296875 C35.96852282 10.88811957 45.62742795 20.27457139 50.2265625 32.16796875 C54.03674143 42.81888631 54.03674143 42.81888631 53.6875 48.375 C54.96625 48.436875 56.245 48.49875 57.5625 48.5625 C65.62389138 49.46385242 73.05429031 53.61376282 78.6875 59.375 C83.03414596 65.32029219 85.86275927 71.03850041 86.6875 78.375 C86.86345703 79.62023437 86.86345703 79.62023437 87.04296875 80.890625 C87.78266542 90.43689904 83.37085262 98.31642184 77.8984375 105.83203125 C71.74931071 112.67457021 62.70899661 116.89833576 53.6875 118.375 C51.72682135 118.4673825 49.76345896 118.50972982 47.8006134 118.51544189 C46.62179596 118.52115204 45.44297852 118.52686218 44.22843933 118.53274536 C42.94367203 118.53386322 41.65890472 118.53498108 40.33520508 118.53613281 C38.96154651 118.54076481 37.58788921 118.54578998 36.2142334 118.55117798 C32.48877071 118.56426886 28.76332602 118.57074067 25.03784394 118.57518864 C22.70683887 118.57812524 20.37583866 118.58223119 18.04483604 118.58669281 C10.74165649 118.60036018 3.4384881 118.61003006 -3.86470336 118.6138947 C-12.2763094 118.61837111 -20.6877526 118.63590275 -29.09930915 118.6648953 C-35.61331612 118.6865628 -42.12727745 118.69660171 -48.64132005 118.69793582 C-52.52607737 118.6989804 -56.41068145 118.70481356 -60.29540062 118.72275543 C-63.95377682 118.73932369 -67.61188604 118.74134961 -71.27028656 118.73261642 C-73.23880975 118.73148798 -75.20732443 118.74513825 -77.17579651 118.7593689 C-90.32835529 118.69796593 -100.38441052 115.30274674 -110.38671875 106.5625 C-118.5297963 98.08380754 -121.00792714 88.33995396 -120.84057617 76.89599609 C-120.56835338 70.79014928 -119.37403285 65.72205216 -116.3125 60.375 C-115.735 59.323125 -115.1575 58.27125 -114.5625 57.1875 C-109.49341693 50.85114616 -102.94091943 45.3469336 -95.3125 42.375 C-92.54296875 42.24609375 -92.54296875 42.24609375 -90.3125 42.375 C-90.10625 41.385 -89.9 40.395 -89.6875 39.375 C-87.59393173 32.19289775 -82.82052726 26.96545284 -76.375 23.33984375 C-69.59547094 20.16835951 -61.29494338 18.81691633 -54.0390625 21.0859375 C-53.34554687 21.36695313 -52.65203125 21.64796875 -51.9375 21.9375 C-48.65633016 23.53462469 -48.65633016 23.53462469 -46.34765625 23.2578125 C-43.46677864 22.00814198 -42.10858664 20.10465748 -40.125 17.6875 C-29.43124682 5.39844922 -16.01955676 0.02079112 0 0 Z M-31.6875 27.75 C-37.72314578 34.81057366 -37.72314578 34.81057366 -40.3125 43.375 C-43.84251971 42.27186884 -46.37877069 40.63450867 -49.25 38.375 C-54.15461539 34.61632279 -58.83334913 32.70520873 -65.15625 32.86328125 C-70.82420637 34.20839408 -75.13043837 38.69145768 -78.375 43.3125 C-79.56748002 47.20793474 -79.52261535 50.3127699 -79.3125 54.375 C-80.2303125 54.44976562 -81.148125 54.52453125 -82.09375 54.6015625 C-90.04730011 55.45372858 -95.74518692 56.41864576 -101.3125 62.375 C-101.83714844 62.90609375 -102.36179687 63.4371875 -102.90234375 63.984375 C-107.21169249 69.38001386 -107.14636184 75.84305038 -106.79296875 82.453125 C-105.81449412 90.44002361 -102.5176854 96.03328298 -96.3515625 101.12109375 C-88.79926449 105.76532299 -82.412317 105.82005152 -73.65722656 105.81079102 C-72.27503651 105.81977838 -70.89285395 105.82998887 -69.51068115 105.84132385 C-65.7707663 105.86773189 -62.03105762 105.87485348 -58.29105854 105.87677121 C-55.94963017 105.87890944 -53.60825355 105.88532511 -51.26683807 105.89326286 C-43.08443396 105.92098815 -34.90217609 105.93327221 -26.71972656 105.9309082 C-19.11521781 105.92910765 -11.51134872 105.96073553 -3.90700173 106.00813919 C2.64020888 106.04748559 9.18721147 106.06345486 15.73453927 106.06154197 C19.63679036 106.06078037 23.53847277 106.06914508 27.44060516 106.10107613 C31.11487922 106.13032369 34.78804905 106.13022165 38.4623642 106.10852623 C40.43667513 106.10394086 42.41098754 106.1287895 44.38513184 106.15484619 C53.87360115 106.05533267 61.14888809 103.68086258 68.125 97.0625 C68.640625 96.175625 69.15625 95.28875 69.6875 94.375 C70.06648437 93.72789062 70.44546875 93.08078125 70.8359375 92.4140625 C73.87398356 86.60303481 74.55329451 81.706792 72.6875 75.375 C69.68381556 68.98716443 66.10708422 65.22814854 59.6875 62.375 C55.96920485 61.12182736 52.39618467 61.31040005 48.5 61.375 C46.22947489 61.41241339 43.95784704 61.42199295 41.6875 61.375 C39.76729981 59.45479981 40.54932493 56.59921475 40.49975586 54.03857422 C40.20003477 41.51610956 37.57687567 33.62540057 28.85546875 24.34765625 C20.50995503 16.75399061 8.37701303 12.96447079 -2.796875 13.16796875 C-14.26476334 14.11175459 -23.89142219 19.38347748 -31.6875 27.75 Z " fill="#F8F8F9" transform="translate(771.3125,324.625)"/>
<path d="M0 0 C0.66 0 1.32 0 2 0 C5.35580562 8.20613669 5.72423494 16.31575312 6.125 25.0625 C6.19805186 26.47597225 6.27226456 27.889385 6.34765625 29.30273438 C6.48917657 31.96731375 6.62283497 34.63179409 6.75048828 37.29711914 C6.88396937 40.01633014 7.05046359 42.72961707 7.23832703 45.44580078 C7.94257425 55.75796661 8.2097718 66.03307293 8.31640625 76.3671875 C8.3370897 78.09807703 8.358088 79.82896281 8.37937927 81.55984497 C8.42294827 85.16845386 8.46389742 88.7770788 8.50268555 92.38574219 C8.55155377 96.9281645 8.60523692 101.47051271 8.66065407 106.01285934 C8.89969549 125.67587371 9.07873085 145.33528351 9 165 C18.35120162 159.29948338 27.69161801 153.58274928 37 147.8125 C70.59689535 126.99131179 70.59689535 126.99131179 83.52416992 119.29321289 C88.78324972 116.15228099 93.98475118 112.92066033 99.1875 109.6875 C106.86179365 104.9203768 114.5758683 100.22755173 122.33203125 95.5949707 C128.80666017 91.72528898 135.24996082 87.80601812 141.6875 83.875 C150.30745114 78.61796073 158.96497095 73.4361241 167.68847656 68.35302734 C170.2642755 66.84530896 172.83137217 65.32331965 175.3984375 63.80078125 C186.47611154 57.25391211 197.65220317 50.93871252 209 44.875 C209.59454987 44.55721588 210.18909973 44.23943176 210.80166626 43.91201782 C214.52586191 41.92480186 218.25891692 39.95522146 222 38 C222.83015625 37.5659082 223.6603125 37.13181641 224.515625 36.68457031 C229.74830193 34 229.74830193 34 232 34 C232 34.66 232 35.32 232 36 C230.1640625 37.6640625 230.1640625 37.6640625 227.625 39.625 C226.40683594 40.57246094 226.40683594 40.57246094 225.1640625 41.5390625 C224.68567932 41.90751785 224.20729614 42.27597321 223.7144165 42.65559387 C222.41518676 43.67442006 221.12992332 44.71108828 219.85150146 45.75590515 C214.13645131 50.41417403 208.27742843 54.64631861 202.1015625 58.66796875 C201.18651947 59.26950272 200.27147644 59.87103668 199.32870483 60.49079895 C196.43050573 62.39437544 193.52784444 64.29101703 190.625 66.1875 C188.71975824 67.43770335 186.81480839 68.68835169 184.91015625 69.93945312 C169.65448771 79.952634 154.37544377 89.93212065 139.00286865 99.76506042 C135.61155145 101.94205876 132.25542403 104.1645327 128.91503906 106.41821289 C120.83489326 111.86558887 112.5968138 117.03978727 104.32324219 122.18774414 C97.48413272 126.44379426 90.6675297 130.73249857 83.875 135.0625 C82.52184692 135.92464111 82.52184692 135.92464111 81.14135742 136.80419922 C76.64079398 139.67350482 72.14358536 142.54800039 67.6484375 145.42578125 C56.66928527 152.44546779 45.62803324 159.35281602 34.50585938 166.14404297 C29.40826437 169.26153613 24.33888275 172.40601188 19.33984375 175.6796875 C18.47447998 176.24284668 17.60911621 176.80600586 16.7175293 177.38623047 C15.12410309 178.42833468 13.53772355 179.4813315 11.96020508 180.54736328 C7.92105218 183.18092983 4.98333112 185.0251424 0 184 C-2.78872734 181.85070679 -3.88168371 180.67678286 -4.49498463 177.1686306 C-4.49259627 176.06742189 -4.49020792 174.96621319 -4.48774719 173.83163452 C-4.49469101 172.56478317 -4.50163483 171.29793182 -4.50878906 169.99269104 C-4.49622676 168.59066429 -4.48327414 167.188641 -4.4699707 165.78662109 C-4.47047961 164.30786485 -4.47273603 162.82910832 -4.47660828 161.35035706 C-4.48203423 157.33073761 -4.46258716 153.31157813 -4.43850732 149.2920413 C-4.41717944 145.07106186 -4.41780392 140.8500836 -4.41581726 136.62905884 C-4.40936342 129.52541229 -4.38811207 122.42193747 -4.35668945 115.31835938 C-4.31662967 106.25132286 -4.29903124 97.18439904 -4.28938007 88.11728477 C-4.28101129 80.2783759 -4.26378693 72.43949005 -4.24434257 64.60060167 C-4.24031554 62.92990703 -4.23657278 61.25921168 -4.2331202 59.58851576 C-4.12962619 9.69564409 -4.12962619 9.69564409 0 0 Z " fill="#F8F8F8" transform="translate(769,566)"/>
<path d="M0 0 C1.1859375 0.00257813 2.371875 0.00515625 3.59375 0.0078125 C4.7796875 0.00523437 5.965625 0.00265625 7.1875 0 C10.09375 0.1328125 10.09375 0.1328125 11.09375 1.1328125 C11.23490161 3.80340101 11.13622107 6.45713488 11.09375 9.1328125 C11.67125 9.2565625 12.24875 9.3803125 12.84375 9.5078125 C15.09375 10.1328125 15.09375 10.1328125 17.09375 11.2578125 C19.04763345 12.30410254 19.04763345 12.30410254 21.15625 11.9453125 C23.1961444 11.24757269 23.1961444 11.24757269 24.59375 9.5078125 C25.33625 8.8271875 25.33625 8.8271875 26.09375 8.1328125 C29.043945 8.34083907 30.08633035 9.1256501 32.234375 11.19921875 C32.93046875 12.02292969 33.6265625 12.84664062 34.34375 13.6953125 C35.05015625 14.52160156 35.7565625 15.34789062 36.484375 16.19921875 C37.01546875 16.83730469 37.5465625 17.47539063 38.09375 18.1328125 C37.3925 18.7515625 36.69125 19.3703125 35.96875 20.0078125 C33.78571726 23.6462004 34.01512726 24.44408625 34.84375 28.4453125 C35.23757075 30.01372653 35.64710706 31.57861578 36.09375 33.1328125 C37.393125 33.2771875 38.6925 33.4215625 40.03125 33.5703125 C43.96875 34.0078125 43.96875 34.0078125 45.09375 35.1328125 C45.19284302 37.46441305 45.22345504 39.79911192 45.21875 42.1328125 C45.22261719 44.0509375 45.22261719 44.0509375 45.2265625 46.0078125 C45.09375 49.1328125 45.09375 49.1328125 44.09375 50.1328125 C41.42316149 50.27396411 38.76942762 50.17528357 36.09375 50.1328125 C35.40334426 51.78978629 34.7406865 53.4583886 34.09375 55.1328125 C33.805 55.7928125 33.51625 56.4528125 33.21875 57.1328125 C32.8664176 59.41935925 32.8664176 59.41935925 35.03125 61.8828125 C35.711875 62.6253125 36.3925 63.3678125 37.09375 64.1328125 C35.68530282 67.34805555 33.99030214 69.45465118 31.46875 71.8828125 C30.83710937 72.49640625 30.20546875 73.11 29.5546875 73.7421875 C29.07257813 74.20109375 28.59046875 74.66 28.09375 75.1328125 C25.95537033 74.07487729 23.85690841 72.99838889 21.78125 71.8203125 C18.92222983 70.86869855 18.92222983 70.86869855 15.34375 72.0078125 C12.00683151 73.70440337 12.00683151 73.70440337 11.4609375 76.0859375 C11.23714663 78.09283623 11.15885606 80.11452459 11.09375 82.1328125 C9.22131019 84.00525231 6.15715482 83.30661642 3.65625 83.3203125 C1.89474609 83.34158203 1.89474609 83.34158203 0.09765625 83.36328125 C-2.90625 83.1328125 -2.90625 83.1328125 -4.90625 81.1328125 C-4.98875 79.9984375 -5.07125 78.8640625 -5.15625 77.6953125 C-5.53228895 73.93512314 -5.53228895 73.93512314 -8.65625 72.1328125 C-12.05157571 71.0880969 -13.60156538 70.93945416 -16.90625 72.1328125 C-17.89625 73.1228125 -17.89625 73.1228125 -18.90625 74.1328125 C-22.58960226 74.03326244 -23.90029484 73.13797364 -26.71875 70.6953125 C-28.90625 68.1328125 -28.90625 68.1328125 -28.90625 66.1328125 C-29.56625 66.1328125 -30.22625 66.1328125 -30.90625 66.1328125 C-30.26938291 62.43898339 -30.26938291 62.43898339 -28.3125 60.7890625 C-26.63868314 59.20625978 -26.63868314 59.20625978 -27.05078125 56.87109375 C-27.27121094 56.07058594 -27.49164062 55.27007813 -27.71875 54.4453125 C-27.93144531 53.63707031 -28.14414062 52.82882812 -28.36328125 51.99609375 C-28.54246094 51.38121094 -28.72164062 50.76632812 -28.90625 50.1328125 C-30.185 50.1740625 -31.46375 50.2153125 -32.78125 50.2578125 C-34.9609375 50.328125 -34.9609375 50.328125 -36.90625 50.1328125 C-38.90625 48.1328125 -38.90625 48.1328125 -39.1015625 45.09375 C-39.07835937 43.91039062 -39.05515625 42.72703125 -39.03125 41.5078125 C-39.01320313 40.31929687 -38.99515625 39.13078125 -38.9765625 37.90625 C-38.95335937 36.99101563 -38.93015625 36.07578125 -38.90625 35.1328125 C-35.94960481 33.6544899 -33.16395263 34.07248467 -29.90625 34.1328125 C-28.6018772 30.83991058 -27.45573211 27.63980129 -26.90625 24.1328125 C-28.65034751 21.2427909 -28.65034751 21.2427909 -30.90625 19.1328125 C-30.90625 15.31673162 -28.35716106 12.87206604 -25.90625 10.1328125 C-22.90625 8.1328125 -22.90625 8.1328125 -20.34375 8.3828125 C-17.90625 9.1328125 -17.90625 9.1328125 -15.90625 11.1328125 C-12.27949527 10.81744252 -8.80499714 10.41039954 -5.90625 8.1328125 C-4.67655122 4.62090441 -4.67655122 4.62090441 -3.90625 1.1328125 C-2.90625 0.1328125 -2.90625 0.1328125 0 0 Z " fill="#F9F9FA" transform="translate(705.90625,632.8671875)"/>
<path d="M0 0 C2.93135189 0.52614008 3.65766669 1.08483482 5.4375 3.4375 C5.81223011 5.89378452 5.81223011 5.89378452 5.8117218 8.8719635 C5.81873611 10.00069382 5.82575043 11.12942413 5.83297729 12.2923584 C5.82533356 13.53142944 5.81768982 14.77050049 5.80981445 16.04711914 C5.81346512 17.35132309 5.81711578 18.65552704 5.82087708 19.99925232 C5.83029036 23.57770544 5.82085767 27.15588527 5.80754495 30.73431706 C5.79623954 34.47566479 5.80033719 38.21699887 5.80229187 41.95835876 C5.80317503 48.24059523 5.79208908 54.52272382 5.77368164 60.80493164 C5.75250444 68.07417135 5.74900594 75.34325311 5.7552436 82.61251742 C5.76093233 89.59909027 5.75529801 96.58560735 5.74407005 103.57217216 C5.73941847 106.54861924 5.73855261 109.52503228 5.7406559 112.50148201 C5.74288411 116.6534978 5.72845094 120.80529102 5.7121582 124.95727539 C5.71463562 126.19837067 5.71711304 127.43946594 5.71966553 128.71817017 C5.71258072 129.84408066 5.70549591 130.96999115 5.69819641 132.13002014 C5.69614354 133.11244218 5.69409067 134.09486422 5.69197559 135.10705662 C5.4375 137.4375 5.4375 137.4375 3.4375 139.4375 C0 139.8125 0 139.8125 -3.5625 139.4375 C-5.71655526 137.30145317 -6.48977483 135.92069925 -6.94281673 132.91060638 C-6.94524663 131.95344978 -6.94767653 130.99629318 -6.95018005 130.01013184 C-6.96008469 128.90815964 -6.96998932 127.80618744 -6.98019409 126.67082214 C-6.97569244 125.46654068 -6.9711908 124.26225922 -6.96655273 123.02148438 C-6.97341599 121.7496077 -6.98027924 120.47773102 -6.98735046 119.16731262 C-7.00529265 115.68178179 -7.00411177 112.19650255 -6.99840808 108.71093941 C-6.99531816 105.8007779 -7.00140638 102.89066485 -7.00744683 99.98051023 C-7.0214935 93.11570931 -7.01992924 86.25103284 -7.00854492 79.38623047 C-6.99705926 72.30379561 -7.01114625 65.22173922 -7.0379414 58.13935423 C-7.06008902 52.0577056 -7.06673805 45.97617586 -7.06086498 39.89448977 C-7.05749241 36.26250933 -7.0599302 32.6307716 -7.07711601 28.99882507 C-7.09543784 24.95014417 -7.08140797 20.90220135 -7.06420898 16.85351562 C-7.07387695 15.64923416 -7.08354492 14.4449527 -7.09350586 13.20417786 C-7.08367172 12.10220566 -7.07383759 11.00023346 -7.06370544 9.86486816 C-7.06349616 8.90771156 -7.06328688 7.95055496 -7.06307125 6.96439362 C-6.25620755 2.89132963 -4.08251649 0.69701501 0 0 Z " fill="#F7F7F8" transform="translate(1007.5625,427.5625)"/>
<path d="M0 0 C3.4375 0.8125 3.4375 0.8125 5.4375 2.8125 C5.69756222 5.06206322 5.69756222 5.06206322 5.71165466 7.9234314 C5.72162979 9.00582596 5.73160492 10.08822052 5.74188232 11.20341492 C5.742547 12.39618546 5.74321167 13.58895599 5.74389648 14.81787109 C5.75222 16.06994858 5.76054352 17.32202606 5.76911926 18.61204529 C5.78913024 22.05223664 5.79986794 25.49218559 5.80494571 28.93241453 C5.8085853 31.08094689 5.81482328 33.22945583 5.8219471 35.37797928 C5.84645475 42.87146277 5.85949616 50.36487692 5.86303711 57.85839844 C5.8666727 64.84654573 5.8965658 71.83425389 5.93844169 78.82226694 C5.9731188 84.81893847 5.9885851 90.81546432 5.98928314 96.81223547 C5.99007691 100.39515255 5.99885983 103.97762263 6.02728081 107.56043625 C6.05827159 111.55671994 6.04941449 115.5519558 6.03686523 119.54833984 C6.05169952 120.73706192 6.06653381 121.925784 6.08181763 123.15052795 C6.00968618 131.18866412 6.00968618 131.18866412 2.90003967 134.57901001 C2.08740158 134.98606171 1.27476349 135.3931134 0.4375 135.8125 C-3.21566671 134.56273244 -4.34315836 134.14151247 -6.5625 130.8125 C-6.81697559 128.45271301 -6.81697559 128.45271301 -6.82319641 125.61254883 C-6.83382362 123.99734848 -6.83382362 123.99734848 -6.84466553 122.34951782 C-6.84218811 121.16812225 -6.83971069 119.98672668 -6.8371582 118.76953125 C-6.84226913 117.52545502 -6.84738007 116.28137878 -6.85264587 114.99960327 C-6.86417675 111.58638521 -6.86661357 108.17340972 -6.86408257 104.76018906 C-6.86301371 101.91212603 -6.86789396 99.06408548 -6.872688 96.21602726 C-6.88378625 89.4984933 -6.88421856 82.78101526 -6.87817383 76.06347656 C-6.87213028 69.12936407 -6.88445385 62.19545429 -6.9057439 55.26137638 C-6.92334433 49.31056199 -6.92936381 43.35981221 -6.92610615 37.40897274 C-6.92429093 33.8536166 -6.92695328 30.29840513 -6.94082069 26.74307251 C-6.95569831 22.78045653 -6.94644255 18.81810003 -6.93481445 14.85546875 C-6.94245819 13.67407318 -6.95010193 12.49267761 -6.95797729 11.27548218 C-6.95096298 10.19868195 -6.94394867 9.12188171 -6.9367218 8.01245117 C-6.93688954 7.07519699 -6.93705729 6.13794281 -6.93723011 5.17228699 C-6.5625 2.8125 -6.5625 2.8125 -5.26176739 0.9757843 C-3.5625 -0.1875 -3.5625 -0.1875 0 0 Z " fill="#F1F1F3" transform="translate(986.5625,447.1875)"/>
<path d="M0 0 C2.375 0.3125 2.375 0.3125 5 1 C7.08720858 4.13081286 7.27512194 5.01945731 7.40692139 8.61187744 C7.46347334 10.01599695 7.46347334 10.01599695 7.52116776 11.44848251 C7.55124294 12.46611805 7.58131813 13.48375359 7.61230469 14.53222656 C7.66849031 16.13334982 7.66849031 16.13334982 7.725811 17.766819 C8.12176738 30.00378183 8.18326059 42.2420189 8.203125 54.484375 C8.20595238 55.68198708 8.20877975 56.87959915 8.21169281 58.1135025 C8.22649571 64.41404934 8.2358518 70.71457428 8.24023438 77.01513672 C8.24578655 83.50923282 8.27000696 90.00312634 8.29820633 96.49715805 C8.31677306 101.51904928 8.32203444 106.54089014 8.32357025 111.56281281 C8.32659539 113.95985306 8.33461921 116.35689245 8.34775543 118.75389862 C8.36473913 122.08186501 8.36295798 125.40931302 8.35644531 128.73730469 C8.3656601 129.72315048 8.37487488 130.70899628 8.3843689 131.72471619 C8.37879974 132.62950211 8.37323059 133.53428802 8.36749268 134.4664917 C8.36895924 135.25018505 8.3704258 136.0338784 8.3719368 136.84132004 C7.90752316 139.53672532 6.76346832 140.95043805 5 143 C2.40772827 142.64969301 0.49012497 142.35825235 -1.64415932 140.79821682 C-3.51784366 138.3131972 -3.37740464 136.63739704 -3.38095093 133.54103088 C-3.39364014 131.83964966 -3.39364014 131.83964966 -3.40658569 130.10389709 C-3.39747665 128.23597755 -3.39747665 128.23597755 -3.38818359 126.33032227 C-3.39344055 125.01957733 -3.39869751 123.7088324 -3.40411377 122.35836792 C-3.41780467 118.76119987 -3.41248121 115.1642896 -3.40297651 111.56711698 C-3.39538745 107.80400978 -3.40242357 104.04092483 -3.40713501 100.27781677 C-3.41259544 93.95689935 -3.40539416 87.63608702 -3.39111328 81.31518555 C-3.3747932 74.00731779 -3.38006933 66.69970121 -3.3965925 59.39183956 C-3.41020764 53.11913515 -3.4121267 46.84650634 -3.40427649 40.57379192 C-3.39959919 36.82671075 -3.39897646 33.07974761 -3.40888596 29.33267403 C-3.41916289 25.15465557 -3.40491777 20.97706978 -3.38818359 16.79907227 C-3.39425629 15.5558168 -3.40032898 14.31256134 -3.40658569 13.03163147 C-3.39812622 11.8945575 -3.38966675 10.75748352 -3.38095093 9.58595276 C-3.37981985 8.59799996 -3.37868877 7.61004717 -3.37752342 6.59215641 C-2.9427746 3.6070782 -1.98834693 2.22364116 0 0 Z " fill="#F3F3F4" transform="translate(964,452)"/>
<path d="M0 0 C4.80028754 2.78059709 8.23082761 6.4562341 9.7578125 11.84375 C10.51709005 17.7220278 10.21613056 23.05978886 6.99609375 28.15625 C3.50508011 31.97881242 -0.57316645 34.82636388 -5.73828125 35.52734375 C-12.79474943 35.6827323 -17.74596598 35.11084757 -23.00390625 30.15625 C-27.1672326 25.05617522 -27.7027366 20.62700877 -27.44140625 14.09375 C-26.60860015 8.50205191 -24.38644397 4.97766669 -19.9140625 1.55859375 C-13.23580093 -2.53968984 -7.25078497 -3.05296209 0 0 Z " fill="#2D3344" transform="translate(718.00390625,656.84375)"/>
<path d="M0 0 C0.08133179 0.8521106 0.08133179 0.8521106 0.16430664 1.72143555 C1.53730237 15.2100619 3.40569446 25.93385473 12.22265625 36.71875 C14 39 14 39 14 41 C0.89998731 41.69626052 -9.63054529 38.44719503 -21 32 C-22.83396188 30.16603812 -22.34302779 27.47345426 -22.4375 25 C-22.33078093 18.01752354 -21.00406984 13.90577561 -16 9 C-5.13684211 0 -5.13684211 0 0 0 Z " fill="#2F3545" transform="translate(676,528)"/>
<path d="M0 0 C1 1 1 1 1.0625 4.5625 C1.041875 5.696875 1.02125 6.83125 1 8 C-0.65 8.33 -2.3 8.66 -4 9 C-4.12117187 10.26457031 -4.24234375 11.52914063 -4.3671875 12.83203125 C-4.53602147 14.49223198 -4.70531633 16.15238589 -4.875 17.8125 C-4.99294922 19.06256836 -4.99294922 19.06256836 -5.11328125 20.33789062 C-5.19707031 21.14033203 -5.28085937 21.94277344 -5.3671875 22.76953125 C-5.44050293 23.50792236 -5.51381836 24.24631348 -5.58935547 25.00708008 C-6 27 -6 27 -8 30 C-7.67873872 32.63434254 -7.18644952 34.62710097 -6 37 C-5.92247794 39.29120769 -5.86253267 41.58302725 -5.8125 43.875 C-5.66511738 47.63361492 -5.66511738 47.63361492 -5 51 C-2.11725921 53.61974426 -2.11725921 53.61974426 1 55 C1.5 57.625 1.5 57.625 1 60 C-1 62 -1 62 -3.8125 62.375 C-7.8042805 61.90537876 -9.21214139 60.86320614 -12 58 C-15.51571952 52.19694488 -15.35836781 47.19012736 -15.3984375 40.55859375 C-16.13409456 36.20675229 -17.65657053 34.7649631 -21 32 C-19.60840337 28.52100842 -18.36748512 27.51947499 -15 26 C-15.10441406 24.17275391 -15.10441406 24.17275391 -15.2109375 22.30859375 C-15.79754669 7.64488359 -15.79754669 7.64488359 -12.125 3.4375 C-7.69231507 -0.01999424 -5.61032647 -0.20401187 0 0 Z " fill="#F1F3F5" transform="translate(568,429)"/>
<path d="M0 0 C8.12990937 0.34743202 8.12990937 0.34743202 11.5 2.875 C14.75258289 7.48282576 14.34516038 12.77704205 14.60546875 18.1953125 C14.77370125 21.33951984 14.99885537 23.99656612 16 27 C16.66 27.309375 17.32 27.61875 18 27.9375 C20 29 20 29 20.8046875 30.921875 C20.90136719 31.95054687 20.90136719 31.95054687 21 33 C20.05125 33.763125 19.1025 34.52625 18.125 35.3125 C15.43495676 37.70774398 15.0219086 38.81605041 14.5859375 42.4765625 C14.55757812 43.78367187 14.52921875 45.09078125 14.5 46.4375 C14.35174413 52.46854868 13.85615029 55.6980378 9.47265625 59.8984375 C6.3049425 62.26792099 3.88241391 62.0844003 0 62 C0 59.36 0 56.72 0 54 C0.639375 53.731875 1.27875 53.46375 1.9375 53.1875 C4.33131686 52.11332248 4.33131686 52.11332248 5 49 C5.27214526 45.48371051 5.445351 41.967646 5.62109375 38.4453125 C6 35 6 35 7.22265625 32.3046875 C7.47917969 31.54414063 7.73570312 30.78359375 8 30 C7.01513659 28.65544735 6.01259455 27.32379381 5 26 C4.66509303 22.78136778 4.56364765 19.63450114 4.56054688 16.40039062 C4.53487327 14.17989789 4.53487327 14.17989789 4 11 C2.04720594 9.2837239 2.04720594 9.2837239 0 8 C-0.52799676 5.23857697 -0.18598981 2.83634455 0 0 Z " fill="#F6F5F5" transform="translate(585,429)"/>
<path d="M0 0 C7.40342756 -0.47764049 12.30016553 0.97070191 19 4 C20.04800781 4.37511719 20.04800781 4.37511719 21.1171875 4.7578125 C24.14838317 5.85206156 25.74331046 6.57590424 27.4375 9.375 C28.52585552 14.45399241 28.03210225 17.54958961 25.5625 22.125 C24.14874632 24.77528467 22.95220887 27.14337338 22 30 C21.34 30 20.68 30 20 30 C19.67128906 29.34515625 19.34257813 28.6903125 19.00390625 28.015625 C14.49363261 19.36176664 9.21684628 11.13974501 2.22265625 4.2734375 C0 2 0 2 0 0 Z " fill="#303748" transform="translate(597,553)"/>
<path d="M0 0 C3 0.25 3 0.25 5 2.25 C5.36487512 5.09602594 5.40199375 6.6364306 3.8125 9.0625 C1.36655047 10.66501866 -0.13381787 10.6909511 -3 10.25 C-5.14915785 7.02626323 -5.38286803 5.98296326 -5 2.25 C-3 0.25 -3 0.25 0 0 Z " fill="#343A4B" transform="translate(638,553.75)"/>
<path d="M0 0 C0 0.66 0 1.32 0 2 C-1.96875 3.5078125 -1.96875 3.5078125 -4.5 5.125 C-5.3353125 5.66382813 -6.170625 6.20265625 -7.03125 6.7578125 C-7.6809375 7.16773438 -8.330625 7.57765625 -9 8 C-9.99 7.01 -10.98 6.02 -12 5 C-10.37750059 4.16180842 -8.75191503 3.3295884 -7.125 2.5 C-6.22007812 2.0359375 -5.31515625 1.571875 -4.3828125 1.09375 C-2 0 -2 0 0 0 Z " fill="#DCDDE0" transform="translate(1001,600)"/>
</svg>
