<?xml version="1.0" encoding="UTF-8"?>
<svg version="1.1" xmlns="http://www.w3.org/2000/svg" width="1536" height="1024">
<path d="M0 0 C506.88 0 1013.76 0 1536 0 C1536 337.92 1536 675.84 1536 1024 C1029.12 1024 522.24 1024 0 1024 C0 686.08 0 348.16 0 0 Z " fill="#2B3141" transform="translate(0,0)"/>
<path d="M0 0 C0.91144775 0.50378174 1.82289551 1.00756348 2.76196289 1.52661133 C3.79699951 2.09114014 4.83203613 2.65566895 5.8984375 3.23730469 C6.99937744 3.85484619 8.10031738 4.4723877 9.23461914 5.10864258 C10.38905518 5.74358643 11.54349121 6.37853027 12.73291016 7.03271484 C16.26463516 8.97736029 19.78178106 10.94702171 23.29711914 12.92114258 C24.29614258 13.48124023 25.29516602 14.04133789 26.32446289 14.6184082 C31.01846132 17.25516041 35.70307746 19.90803762 40.38305664 22.56958008 C55.01794937 30.88227817 69.75680928 39.01368161 84.54711914 47.04614258 C92.86611983 51.56514314 101.12024395 56.18999632 109.35424805 60.86181641 C121.2901009 67.62933103 133.29144747 74.27848745 145.29711914 80.92114258 C145.89925232 81.25432495 146.5013855 81.58750732 147.12176514 81.93078613 C150.83438747 83.98479674 154.54784721 86.03728512 158.26211548 88.08831787 C159.48894745 88.76586293 160.71565341 89.4436362 161.94223022 90.12164307 C168.21259227 93.58718375 174.49106261 97.03519261 180.80493164 100.42114258 C181.81064209 100.96230713 182.81635254 101.50347168 183.85253906 102.06103516 C185.70626968 103.05644374 187.56298225 104.0463294 189.42333984 105.02929688 C194.18386023 107.58821051 198.42371555 110.12246704 202.29711914 113.92114258 C202.73461914 117.35864258 202.73461914 117.35864258 201.29711914 120.92114258 C199.58569336 122.34204102 199.58569336 122.34204102 197.41430664 123.71801758 C196.60050537 124.23678467 195.7867041 124.75555176 194.94824219 125.29003906 C190.31464051 128.1408626 185.6614347 130.95422667 180.98461914 133.73364258 C178.76030921 135.06248131 176.53636461 136.3919317 174.31274414 137.72192383 C173.74011337 138.06422028 173.1674826 138.40651672 172.57749939 138.75918579 C166.1159126 142.62344656 159.67167393 146.51617462 153.23461914 150.42114258 C152.64707855 150.77753815 152.05953796 151.13393372 151.45419312 151.50112915 C142.37813156 157.01088984 133.36174665 162.61196759 124.37060547 168.25927734 C115.58649625 173.76593958 106.72864354 179.14679886 97.85961914 184.51489258 C89.98412913 189.28274584 82.1322973 194.08719155 74.29711914 198.92114258 C65.21631576 204.52276139 56.11005293 210.08020845 46.98461914 215.60864258 C38.58661588 220.69674884 30.20547398 225.81029576 21.85961914 230.98364258 C21.01101318 231.50812988 20.16240723 232.03261719 19.28808594 232.57299805 C15.60399581 234.85325902 11.93205065 237.14736941 8.29321289 239.49926758 C7.69371826 239.88203857 7.09422363 240.26480957 6.4765625 240.65917969 C4.94265044 241.64053555 3.41634 242.63374726 1.89086914 243.62817383 C-0.94505749 245.04186617 -2.57985741 245.36499694 -5.70288086 244.92114258 C-7.70288086 242.92114258 -7.70288086 242.92114258 -8.45288086 239.73364258 C-7.70288086 235.92114258 -7.70288086 235.92114258 -5.90576172 234.30102539 C-5.10533447 233.76832031 -4.30490723 233.23561523 -3.48022461 232.68676758 C-2.56966309 232.07937744 -1.65910156 231.4719873 -0.72094727 230.84619141 C4.63083669 227.43260004 10.04245516 224.12557928 15.48461914 220.85864258 C16.72833811 220.10837166 17.97182379 219.3577139 19.21508789 218.60668945 C21.72387553 217.09149792 24.2335476 215.57778888 26.74389648 214.06518555 C31.77173772 211.03376007 36.784437 207.97754749 41.79711914 204.92114258 C50.29245564 199.74678511 58.79372138 194.58223601 67.29711914 189.42114258 C77.77454278 183.06177597 88.24748489 176.69510231 98.71508789 170.31958008 C102.50779256 168.00970231 106.30222553 165.70269872 110.09790039 163.39770508 C120.21596688 157.25093096 130.31132677 151.07070747 140.36816406 144.82421875 C146.9653147 140.73155925 153.59587686 136.69590379 160.23461914 132.67114258 C168.67642155 127.55083241 177.03807828 122.33174474 185.29711914 116.92114258 C178.78886874 112.72328191 172.07265789 109.05156386 165.23461914 105.42114258 C156.6948727 100.85795599 148.20788239 96.21938746 139.79711914 91.42114258 C131.65235008 86.77700277 123.44051272 82.27883393 115.17211914 77.85864258 C106.41268597 73.17487742 97.74509592 68.36636581 89.14404297 63.3984375 C82.44309613 59.54132907 75.6668223 55.83704733 68.85961914 52.17114258 C61.61224739 48.26818821 54.41350883 44.3152083 47.28540039 40.19848633 C40.44832953 36.27182761 33.54049911 32.46829227 26.63916016 28.65600586 C21.1650394 25.63118724 15.70226678 22.59168196 10.28149414 19.47192383 C9.37028809 18.953479 8.45908203 18.43503418 7.52026367 17.90087891 C5.8323512 16.93955232 4.15059711 15.96730156 2.47631836 14.98242188 C1.72882324 14.56001221 0.98132813 14.13760254 0.21118164 13.70239258 C-0.74860596 13.14648438 -0.74860596 13.14648438 -1.7277832 12.5793457 C-5.18576111 11.42697136 -7.82289353 12.50259617 -11.0168457 14.02172852 C-11.80784668 14.47837891 -12.59884766 14.9350293 -13.41381836 15.40551758 C-14.31664551 15.92170654 -15.21947266 16.43789551 -16.1496582 16.96972656 C-17.59912842 17.81192749 -17.59912842 17.81192749 -19.07788086 18.67114258 C-21.16112097 19.86531564 -23.24445692 21.05932152 -25.32788086 22.25317383 C-26.39006836 22.86499512 -27.45225586 23.47681641 -28.54663086 24.10717773 C-33.37619343 26.88283135 -38.22674476 29.62092692 -43.07788086 32.35864258 C-44.01857422 32.89062256 -44.95926758 33.42260254 -45.9284668 33.97070312 C-53.04980847 37.99620248 -60.18713357 41.99269311 -67.32788086 45.98364258 C-75.12182956 50.33980975 -82.89468178 54.72974868 -90.64038086 59.17114258 C-98.34730503 63.58961575 -106.09089927 67.9350548 -113.86303711 72.23754883 C-119.54830181 75.38596235 -125.21988722 78.55872071 -130.89038086 81.73364258 C-131.95643555 82.33047852 -133.02249023 82.92731445 -134.12084961 83.54223633 C-141.07639624 87.44003058 -148.01735092 91.36287714 -154.95288086 95.29614258 C-165.08971508 101.04396978 -175.28745791 106.67825897 -185.5065918 112.27807617 C-192.20347963 115.95639758 -198.8206834 119.72040493 -205.36816406 123.65795898 C-207.70288086 124.92114258 -207.70288086 124.92114258 -209.70288086 124.92114258 C-209.70288086 175.74114258 -209.70288086 226.56114258 -209.70288086 278.92114258 C-208.05288086 279.58114258 -206.40288086 280.24114258 -204.70288086 280.92114258 C-203.02340554 281.7686182 -201.35721059 282.64276019 -199.70288086 283.53833008 C-198.74486572 284.0562915 -197.78685059 284.57425293 -196.79980469 285.10791016 C-195.77781982 285.66502686 -194.75583496 286.22214355 -193.70288086 286.79614258 C-192.63126709 287.378396 -191.55965332 287.96064941 -190.45556641 288.56054688 C-182.91056473 292.67625579 -175.43373251 296.89920137 -167.98754883 301.19042969 C-160.48376386 305.50381084 -152.91224659 309.68942872 -145.32788086 313.85864258 C-136.15902145 318.90150023 -127.00440222 323.96699822 -117.89038086 329.10864258 C-116.51390381 329.88292603 -116.51390381 329.88292603 -115.10961914 330.67285156 C-112.63203946 332.0745609 -110.16457905 333.4917529 -107.70288086 334.92114258 C-106.92211182 335.37038086 -106.14134277 335.81961914 -105.33691406 336.2824707 C-104.61205811 336.71366211 -103.88720215 337.14485352 -103.14038086 337.58911133 C-102.50358398 337.96447021 -101.86678711 338.3398291 -101.21069336 338.7265625 C-99.70288086 339.92114258 -99.70288086 339.92114258 -98.51538086 343.04614258 C-98.70288086 345.92114258 -98.70288086 345.92114258 -99.82788086 347.79614258 C-102.31307008 349.28725611 -103.8277314 349.14530321 -106.70288086 348.92114258 C-108.95678711 348.01000977 -108.95678711 348.01000977 -111.26538086 346.71801758 C-112.13316162 346.23872803 -113.00094238 345.75943848 -113.89501953 345.265625 C-114.82161377 344.7394458 -115.74820801 344.2132666 -116.70288086 343.67114258 C-118.16721558 342.85577026 -118.16721558 342.85577026 -119.66113281 342.02392578 C-122.6826336 340.336063 -125.69434563 338.63199528 -128.70288086 336.92114258 C-130.01264893 336.17646729 -130.01264893 336.17646729 -131.34887695 335.41674805 C-134.72468623 333.49322303 -138.09737086 331.56437904 -141.46606445 329.62841797 C-152.55198599 323.26336894 -163.74740208 317.09484878 -174.93048096 310.90270996 C-184.52798118 305.58754764 -194.1191278 300.26105885 -203.70288086 294.92114258 C-204.52320801 294.46529785 -205.34353516 294.00945312 -206.1887207 293.53979492 C-208.19651998 292.42228387 -210.20056795 291.29844502 -212.20288086 290.17114258 C-213.22381836 289.59879883 -214.24475586 289.02645508 -215.29663086 288.43676758 C-219.09438059 286.04467846 -219.09438059 286.04467846 -220.70288086 283.92114258 C-221.08878422 281.00471687 -221.08878422 281.00471687 -221.10401917 277.36795044 C-221.11081583 276.69921241 -221.1176125 276.03047437 -221.12461513 275.34147155 C-221.14363778 273.09589881 -221.14114717 270.85086912 -221.13867188 268.60522461 C-221.14764632 266.99714453 -221.15785383 265.38907092 -221.16920471 263.78100586 C-221.19574181 259.40905195 -221.20273974 255.0372741 -221.20465207 250.66524744 C-221.20749861 247.01708735 -221.21853268 243.3689684 -221.22916836 239.72082412 C-221.25360873 231.11423595 -221.26092049 222.50774193 -221.25878906 213.90112305 C-221.25698661 205.0196695 -221.28864163 196.13876256 -221.33602005 187.25744736 C-221.37523413 179.63526494 -221.39134129 172.01326124 -221.38942283 164.39097869 C-221.38865746 159.83719996 -221.39723287 155.2839068 -221.42895699 150.73022842 C-221.457981 146.44705913 -221.45825329 142.16484018 -221.43640709 137.88163757 C-221.43326691 136.30986521 -221.44037461 134.73803389 -221.45848846 133.16636276 C-221.58651395 121.28850282 -221.58651395 121.28850282 -219.40051746 117.90582657 C-217.80331421 116.53915405 -217.80331421 116.53915405 -214.70288086 114.92114258 C-213.54671265 114.19701172 -213.54671265 114.19701172 -212.3671875 113.45825195 C-211.62331787 113.06444336 -210.87944824 112.67063477 -210.11303711 112.26489258 C-209.25863037 111.80679199 -208.40422363 111.34869141 -207.52392578 110.87670898 C-206.61360596 110.39637207 -205.70328613 109.91603516 -204.76538086 109.42114258 C-202.78277401 108.3575954 -200.80102931 107.29243978 -198.82006836 106.22583008 C-197.80525391 105.68023437 -196.79043945 105.13463867 -195.74487305 104.57250977 C-190.92616214 101.95663813 -186.15739275 99.25477515 -181.39038086 96.54614258 C-179.46468932 95.45353654 -177.53890699 94.36109048 -175.61303711 93.26879883 C-174.1611499 92.44532959 -174.1611499 92.44532959 -172.67993164 91.60522461 C-164.43435854 86.9408025 -156.15908471 82.32895269 -147.89086914 77.70483398 C-144.65944402 75.8968395 -141.42904728 74.08702082 -138.19897461 72.27661133 C-129.0006386 67.12148466 -119.80098409 61.96934775 -110.57788086 56.85864258 C-94.47762667 47.92747532 -78.4862513 38.81147765 -62.55224609 29.58740234 C-53.96187434 24.62431778 -45.32168199 19.75536611 -36.64746094 14.94042969 C-31.76570474 12.22461376 -26.91567572 9.47435756 -22.12475586 6.60083008 C-21.25842529 6.08423828 -20.39209473 5.56764648 -19.49951172 5.03540039 C-17.89711079 4.07474725 -16.30100622 3.10347421 -14.71289062 2.11938477 C-14.00447021 1.69560547 -13.2960498 1.27182617 -12.56616211 0.83520508 C-11.96070557 0.46347168 -11.35524902 0.09173828 -10.73144531 -0.29125977 C-6.91861598 -1.77160486 -3.75948502 -1.50060196 0 0 Z " fill="#F7F7F8" transform="translate(777.702880859375,206.078857421875)"/>
<path d="M0 0 C4.81702832 0.76952527 7.40571575 4.00970693 10.390625 7.63671875 C12.80286156 11.51700837 12.78379483 13.66271816 11.9375 18.125 C10.5625 20.125 10.5625 20.125 8.9375 21.125 C8.2775 21.125 7.6175 21.125 6.9375 21.125 C8.27554527 31.28140074 9.86121566 40.18130016 16.9375 48.125 C18.77288304 49.57163487 18.77288304 49.57163487 20.9375 50.125 C21.75605469 49.91617188 22.57460938 49.70734375 23.41796875 49.4921875 C24.24941406 49.37101562 25.08085938 49.24984375 25.9375 49.125 C28.17578125 50.8203125 28.17578125 50.8203125 30.25 53.25 C30.94738281 54.03632813 31.64476562 54.82265625 32.36328125 55.6328125 C34.1854281 58.51750156 34.46788374 59.77990654 33.9375 63.125 C31.78891798 67.78026105 29.42816568 71.4656671 24.6875 73.5625 C23.78 73.748125 22.8725 73.93375 21.9375 74.125 C21.2775 74.785 20.6175 75.445 19.9375 76.125 C13.47596154 75.66346154 13.47596154 75.66346154 10.9375 73.125 C10.55463197 69.39203674 10.78834215 68.34873677 12.9375 65.125 C12.37877197 65.14071045 11.82004395 65.1564209 11.24438477 65.17260742 C8.6630301 65.23574924 6.0818387 65.27423704 3.5 65.3125 C2.62150391 65.33763672 1.74300781 65.36277344 0.83789062 65.38867188 C-6.97670255 65.47518029 -13.32365769 63.96377311 -19.9375 59.75 C-24.43626568 57.37841729 -27.94714932 58.55942462 -32.64453125 59.9375 C-36.24432422 61.70541125 -37.48919702 63.94914389 -39.2109375 67.48046875 C-40.18655817 70.51026322 -40.47827548 73.26426149 -40.6875 76.4375 C-40.76226563 77.50613281 -40.83703125 78.57476562 -40.9140625 79.67578125 C-40.96304688 80.48402344 -41.01203125 81.29226563 -41.0625 82.125 C-40.45921875 82.05539062 -39.8559375 81.98578125 -39.234375 81.9140625 C-36.73307156 81.74461936 -34.53839964 81.71235006 -32.0625 82.125 C-29.25534317 84.99899389 -28.12934848 86.72118191 -27.9375 90.75 C-29.52003604 94.09090941 -31.97785177 95.19709485 -35.0625 97.125 C-35.5575 98.61 -35.5575 98.61 -36.0625 100.125 C-38.98169239 102.52904079 -40.63294647 103.11704531 -44.4375 103.1875 C-49.083649 101.82569771 -51.68400597 99.48676881 -55.0625 96.125 C-55.62582031 95.63902344 -56.18914063 95.15304687 -56.76953125 94.65234375 C-58.0625 93.125 -58.0625 93.125 -58 89.5625 C-57.0625 86.125 -57.0625 86.125 -55.00390625 84.91015625 C-54.36324219 84.65105469 -53.72257813 84.39195312 -53.0625 84.125 C-62.56606771 64.636868 -62.56606771 64.636868 -78.0625 51.125 C-79.031875 51.186875 -80.00125 51.24875 -81 51.3125 C-84.0625 51.125 -84.0625 51.125 -86.875 48.6875 C-87.596875 47.841875 -88.31875 46.99625 -89.0625 46.125 C-89.3925 45.795 -89.7225 45.465 -90.0625 45.125 C-90.83729422 41.11574737 -91.24094328 37.207566 -91.0625 33.125 C-88.875 30.1875 -88.875 30.1875 -86.0625 28.125 C-85.010625 26.7946875 -85.010625 26.7946875 -83.9375 25.4375 C-81.53300048 22.47195059 -79.96051072 21.22053306 -76.125 20.8125 C-72.78031528 21.15379436 -71.49469831 21.87989387 -69.0625 24.125 C-69.3925 26.765 -69.7225 29.405 -70.0625 32.125 C-68.928125 32.063125 -67.79375 32.00125 -66.625 31.9375 C-60.84988549 31.9375 -55.93282927 33.97594536 -50.6328125 36.09765625 C-48.43716955 36.92912104 -46.37004788 37.68792881 -44.0625 38.125 C-42.00259522 36.83032323 -42.00259522 36.83032323 -40.0625 35.125 C-37.04812842 34.84042646 -34.08208584 34.95079312 -31.0625 35.125 C-30.85625 34.3 -30.65 33.475 -30.4375 32.625 C-27.33710207 24.733078 -22.00182156 19.7746977 -15.0625 15.125 C-15.79533203 14.23167969 -15.79533203 14.23167969 -16.54296875 13.3203125 C-18.54533763 10.42742995 -18.43725185 8.57271702 -18.0625 5.125 C-15.44308355 2.50558355 -13.63277521 2.57775655 -10 2.0625 C-6.35043174 1.53741348 -3.4542242 0.14098874 0 0 Z " fill="#F8F8F9" transform="translate(701.0625,406.875)"/>
<path d="M0 0 C6.84358826 6.84358826 8.32233834 14.37630851 8.41540527 23.86950684 C8.41238403 24.95413208 8.40936279 26.03875732 8.40625 27.15625 C8.41708618 28.29856079 8.42792236 29.44087158 8.43908691 30.61779785 C8.48465713 35.46895462 8.49639064 40.32005455 8.51123047 45.17138672 C8.52699128 48.72903063 8.56000276 52.28623842 8.59375 55.84375 C8.59072876 56.92837524 8.58770752 58.01300049 8.58459473 59.13049316 C8.59470581 60.16186401 8.60481689 61.19323486 8.61523438 62.25585938 C8.61728882 63.15026733 8.61934326 64.04467529 8.62145996 64.96618652 C9.03463062 69.08556514 9.03463062 69.08556514 12 77 C4.74 77 -2.52 77 -10 77 C-11.32 74.03 -12.64 71.06 -14 68 C-15.11375 68.9075 -16.2275 69.815 -17.375 70.75 C-25.29174456 76.54006274 -31.95196341 78.34981767 -41.6875 78.4375 C-42.49550049 78.44765137 -43.30350098 78.45780273 -44.13598633 78.46826172 C-51.90172106 78.35493993 -57.68624626 76.03438693 -63.421875 70.69921875 C-68.85075869 64.8537623 -69.6733876 58.7513127 -69.60693359 50.93847656 C-69.29019623 44.5346775 -67.59824808 40.41921793 -63 36 C-52.8111401 27.49082534 -41.727646 27.3232149 -28.96289062 26.14453125 C-27.74408203 26.02464844 -26.52527344 25.90476562 -25.26953125 25.78125 C-24.16198486 25.67876953 -23.05443848 25.57628906 -21.91333008 25.47070312 C-19.18908875 25.03055084 -17.35638898 24.39372878 -15 23 C-15.08746284 21.56138706 -15.19565348 20.12402492 -15.3125 18.6875 C-15.37050781 17.88699219 -15.42851563 17.08648438 -15.48828125 16.26171875 C-16.10193773 13.5494508 -16.82658256 12.69596189 -19 11 C-23.46740159 8.23446568 -27.90180553 8.5043422 -33 9 C-37.61096341 10.36061215 -39.47377746 11.27466622 -42.3125 15.1875 C-45 18 -45 18 -47.14453125 18.45703125 C-53.52732611 18.56759935 -59.7790824 17.32460603 -66 16 C-65.64328865 8.86577301 -61.23136454 3.83219322 -56.125 -0.8125 C-40.92341045 -11.45361268 -14.56493262 -11.79065974 0 0 Z " fill="#F9F8F9" transform="translate(935,673)"/>
<path d="M0 0 C0.69480469 0.30164063 1.38960937 0.60328125 2.10546875 0.9140625 C11.30110234 5.15820108 16.23317972 11.1420685 21 20 C23 26 23 26 23 46 C3.53 46 -15.94 46 -36 46 C-34.03184871 54.85668078 -32.58467078 60.0052168 -25 65 C-18.58082017 67.08189616 -12.20833761 66.37421199 -5.95703125 64.2421875 C-3.67564002 62.98525581 -3.67564002 62.98525581 -1.9375 59.8125 C-0.6574707 58.20263672 -0.6574707 58.20263672 1 57 C4.72378455 56.67499002 8.16698629 57.39051101 11.8125 58.125 C12.79154297 58.29515625 13.77058594 58.4653125 14.77929688 58.640625 C17.19311048 59.06451422 19.59718691 59.51823137 22 60 C18.54584737 68.8970598 12.95667999 76.12066299 4.1796875 80.36328125 C-9.62285082 85.53453198 -24.35685338 85.86257229 -38 80 C-48.06887351 74.68172259 -54.771325 66.21223992 -58.125 55.359375 C-59.27026315 50.45698547 -59.33066987 45.63988337 -59.3125 40.625 C-59.32861328 39.74328125 -59.34472656 38.8615625 -59.36132812 37.953125 C-59.37039592 25.58465779 -55.04525492 16.22828429 -46.6875 7.25 C-34.75973496 -4.0486082 -14.90311944 -6.98863717 0 0 Z " fill="#FAFAFA" transform="translate(644,668)"/>
<path d="M0 0 C10.1003436 5.10193051 16.59958438 12.79368843 20.66796875 23.34765625 C22.26057371 30.6981407 21.66796875 37.69663027 21.66796875 45.34765625 C2.52796875 45.34765625 -16.61203125 45.34765625 -36.33203125 45.34765625 C-34.75376681 55.01868747 -34.75376681 55.01868747 -29.33203125 62.34765625 C-24.11857904 65.53491961 -18.31277428 66.12353643 -12.33203125 65.34765625 C-7.79077094 63.98527816 -5.86519189 63.11188473 -3.1328125 59.1953125 C-0.33203125 56.34765625 -0.33203125 56.34765625 3.515625 56.1640625 C4.92605215 56.37952607 6.3315838 56.6293535 7.73046875 56.91015625 C8.43751953 57.02423828 9.14457031 57.13832031 9.87304688 57.25585938 C13.17386036 57.80444528 16.43941487 58.46714156 19.66796875 59.34765625 C18.80733851 66.66301332 14.2212811 71.19221457 8.8203125 75.73828125 C0.22081219 82.16839763 -8.07117424 82.5687712 -18.51953125 82.66015625 C-20.14858398 82.70366211 -20.14858398 82.70366211 -21.81054688 82.74804688 C-33.27202862 82.83753592 -42.06763694 79.34238703 -50.33203125 71.34765625 C-60.17799569 59.94475756 -61.56458678 46.28677378 -60.60693359 31.79589844 C-59.28870708 20.05595574 -52.45935282 10.35999573 -43.62109375 2.88671875 C-39.53739768 0.14102549 -35.01281373 -1.24584045 -30.33203125 -2.65234375 C-20.55612 -5.91098083 -9.17064528 -4.08976603 0 0 Z " fill="#F9F9FA" transform="translate(737.33203125,668.65234375)"/>
<path d="M0 0 C7.75422721 6.39354886 14.64414577 14.17076231 16.6875 24.25 C16.72638349 26.58300933 16.7323635 28.91709801 16.6875 31.25 C17.63625 31.146875 18.585 31.04375 19.5625 30.9375 C25.7701388 30.97519821 31.19562909 34.06553746 35.77734375 38.08203125 C42.54538777 45.33657315 44.36012486 52.14030965 44.09765625 62 C43.02934384 70.46510408 38.26595102 77.04835987 31.6875 82.25 C24.31432526 87.04829466 17.9367074 87.97937265 9.26806641 87.9128418 C7.4659948 87.92839363 7.4659948 87.92839363 5.6275177 87.94425964 C2.36054991 87.96658086 -0.90540386 87.96666181 -4.17239714 87.95455909 C-6.91313449 87.94737921 -9.65373374 87.95595996 -12.39446032 87.96446449 C-18.86759459 87.98435402 -25.34035903 87.97892049 -31.81347656 87.95678711 C-38.46097281 87.93444172 -45.1074969 87.95201257 -51.75490129 87.98983639 C-57.49034943 88.02120794 -63.22549885 88.02894483 -68.96102202 88.01788265 C-72.37419053 88.01143806 -75.78679932 88.01319042 -79.19990158 88.03720665 C-83.01205892 88.05729586 -86.82221049 88.03868035 -90.63427734 88.01049805 C-92.29926018 88.03107269 -92.29926018 88.03107269 -93.99787903 88.05206299 C-104.19374512 87.9023509 -112.54466195 84.33350598 -119.8125 77.125 C-125.78068991 69.7020638 -128.18407799 60.72904936 -127.82421875 51.2734375 C-126.499064 43.44389719 -122.55794189 36.22301508 -116.17578125 31.42578125 C-112.41517403 29.0527356 -108.57578139 26.67385088 -104.1640625 25.84765625 C-103.24753906 25.55181641 -103.24753906 25.55181641 -102.3125 25.25 C-101.55891245 23.54623683 -100.81351742 21.8369375 -100.15625 20.09375 C-98.81688766 17.16699525 -96.70323136 15.34917876 -94.3125 13.25 C-93.735 12.693125 -93.1575 12.13625 -92.5625 11.5625 C-87.14333116 8.40131817 -80.47115807 7.78519562 -74.3125 8.25 C-72.30098259 8.88106429 -70.29886298 9.54373761 -68.3125 10.25 C-64.42379283 10.70611476 -64.42379283 10.70611476 -62.671875 8.7109375 C-61.87523437 7.67839844 -61.87523437 7.67839844 -61.0625 6.625 C-46.10841608 -11.42854149 -18.91295342 -13.04592934 0 0 Z M-55.7578125 15.9609375 C-58.00450634 19.26888371 -59.71329836 22.5851629 -61.3125 26.25 C-64.1599965 24.93671497 -65.88370227 23.75019802 -68.3125 21.625 C-72.47475036 18.619927 -76.40408081 18.46934812 -81.43359375 18.71484375 C-85.20583168 19.4160603 -87.31798112 20.57549547 -90.0234375 23.26171875 C-91.56318071 25.63665601 -91.95703693 27.67000913 -92.5 30.4375 C-93.12109375 33.05859375 -93.12109375 33.05859375 -94.3125 35.25 C-97.28992769 36.5081311 -100.11227033 37.00860599 -103.29296875 37.55859375 C-108.98608064 38.86219117 -111.99028913 42.3733136 -115.25 47 C-117.3810033 53.51836304 -117.11917187 59.19505147 -114.375 65.5 C-111.5167543 70.65621028 -107.68429424 73.85959567 -102.3125 76.25 C-96.77012644 77.49046245 -91.26512579 77.41179922 -85.61645508 77.42700195 C-84.01767517 77.43685875 -84.01767517 77.43685875 -82.38659668 77.44691467 C-78.86840741 77.46658288 -75.35026069 77.47829573 -71.83203125 77.48828125 C-70.02395776 77.49439454 -70.02395776 77.49439454 -68.17935753 77.50063133 C-61.79950509 77.52146421 -55.41967398 77.53577812 -49.03979492 77.54516602 C-42.46733731 77.55622598 -35.89521864 77.59062969 -29.32288074 77.63033772 C-24.25348806 77.65654097 -19.18417574 77.66486117 -14.1147213 77.66844749 C-11.69275307 77.6733036 -9.2707882 77.68488952 -6.84888649 77.70348549 C-3.45082684 77.72795564 -0.05363922 77.72689713 3.34448242 77.7199707 C4.33344009 77.73278076 5.32239777 77.74559082 6.34132385 77.75878906 C13.62437967 77.70501295 21.59116399 76.60971637 27.40906048 71.83801746 C31.78770275 66.85666286 33.17258824 62.01018947 33 55.52734375 C32.2875648 50.3354722 29.79277932 47.1250128 25.6875 43.875 C20.95021741 41.30897193 17.32080871 41.13366691 11.9375 41.1875 C10.18179688 41.20103516 10.18179688 41.20103516 8.390625 41.21484375 C7.49859375 41.22644531 6.6065625 41.23804688 5.6875 41.25 C5.72230469 40.3321875 5.75710938 39.414375 5.79296875 38.46875 C6.02051698 28.15323035 4.98506889 20.0230997 -2.3125 12.25 C-10.54934477 5.19709596 -21.30434456 1.25213955 -32.1640625 1.6796875 C-41.61652059 3.39191936 -49.77835228 8.49302795 -55.7578125 15.9609375 Z " fill="#F8F8F9" transform="translate(803.3125,273.75)"/>
<path d="M0 0 C7.26 0 14.52 0 22 0 C22.01458252 1.52810303 22.02916504 3.05620605 22.04418945 4.63061523 C22.10238822 10.32811271 22.17962011 16.0252239 22.26245117 21.72241211 C22.29559912 24.18296006 22.32366222 26.6435822 22.34643555 29.10424805 C22.38016755 32.65184997 22.43249428 36.19877824 22.48828125 39.74609375 C22.49467117 40.8370787 22.5010611 41.92806366 22.50764465 43.05210876 C22.65010469 50.53994014 22.96133378 58.03544759 28.5625 63.5 C33.39553427 66.47417493 37.37884409 66.614288 43 66 C47.32018661 64.4559333 50.69165585 62.0092293 53 58 C54.66176196 54.39154694 55.26208591 51.53100047 55.31884766 47.56713867 C55.33871735 46.50641647 55.35858704 45.44569427 55.37905884 44.35282898 C55.39061005 43.2193251 55.40216125 42.08582123 55.4140625 40.91796875 C55.43342865 39.74865311 55.4527948 38.57933746 55.4727478 37.37458801 C55.53245195 33.64563251 55.57889297 29.91664599 55.625 26.1875 C55.66318815 23.6568877 55.70224037 21.12628827 55.7421875 18.59570312 C55.83976966 12.39720303 55.91941299 6.19883758 56 0 C63.59 0 71.18 0 79 0 C79.02255088 10.67420075 79.040915 21.3483858 79.05181217 32.02260494 C79.05704103 36.97853922 79.06413874 41.93445642 79.07543945 46.89038086 C79.08626822 51.66898836 79.09227681 56.44757938 79.09487724 61.2261982 C79.09673151 63.05353619 79.10035216 64.88087324 79.10573006 66.70820427 C79.11294036 69.25853329 79.11399095 71.80879337 79.11352539 74.35913086 C79.11712067 75.12229614 79.12071594 75.88546143 79.12442017 76.67175293 C79.11405216 81.88594784 79.11405216 81.88594784 78 83 C76.43827255 83.08685603 74.87270656 83.10702219 73.30859375 83.09765625 C72.36435547 83.09443359 71.42011719 83.09121094 70.44726562 83.08789062 C69.45404297 83.07951172 68.46082031 83.07113281 67.4375 83.0625 C66.44041016 83.05798828 65.44332031 83.05347656 64.41601562 83.04882812 C61.94398513 83.03700023 59.47198528 83.01906415 57 83 C56.67 79.7 56.34 76.4 56 73 C55.443125 73.54269531 54.88625 74.08539062 54.3125 74.64453125 C53.549375 75.35996094 52.78625 76.07539062 52 76.8125 C51.2575 77.52019531 50.515 78.22789062 49.75 78.95703125 C43.59845144 83.52700269 37.52276884 84.49053741 30 84.375 C29.24460937 84.38660156 28.48921875 84.39820313 27.7109375 84.41015625 C19.41132507 84.36737474 13.03541568 81.89824714 7 76 C1.52663227 68.70217636 -0.13292912 61.9449685 -0.11352539 52.90283203 C-0.11344986 51.72206085 -0.11337433 50.54128967 -0.11329651 49.32473755 C-0.10555458 47.43535965 -0.10555458 47.43535965 -0.09765625 45.5078125 C-0.0962413 44.20673553 -0.09482635 42.90565857 -0.09336853 41.56515503 C-0.08956844 38.12270147 -0.07975983 34.68029075 -0.06866455 31.237854 C-0.05839625 27.71847106 -0.05385934 24.19908113 -0.04882812 20.6796875 C-0.03813509 13.78643906 -0.02055886 6.89322601 0 0 Z " fill="#F9F9FA" transform="translate(962,667)"/>
<path d="M0 0 C7.74431409 4.46094658 11.38927151 9.87484579 14.18359375 18.2578125 C14.27270548 20.29747731 14.3011942 22.33998536 14.29711914 24.3815918 C14.29700584 26.27321297 14.29700584 26.27321297 14.29689026 28.20304871 C14.29178364 29.57937662 14.28656764 30.95570413 14.28125 32.33203125 C14.27938461 33.74021861 14.27796128 35.14840661 14.27696228 36.55659485 C14.27314663 40.2604858 14.26332447 43.96433745 14.2522583 47.66821289 C14.24202372 51.44872506 14.23746027 55.22924359 14.23242188 59.00976562 C14.22170134 66.42580123 14.20411225 73.84179635 14.18359375 81.2578125 C6.92359375 81.2578125 -0.33640625 81.2578125 -7.81640625 81.2578125 C-7.83098877 79.69417969 -7.84557129 78.13054687 -7.8605957 76.51953125 C-7.91873406 70.6972002 -7.99596678 64.87524959 -8.07885742 59.05322266 C-8.11203361 56.53733512 -8.14008809 54.02137447 -8.1628418 51.50537109 C-8.19652143 47.88086906 -8.24884616 44.25703271 -8.3046875 40.6328125 C-8.31107742 39.51479248 -8.31746735 38.39677246 -8.3240509 37.24487305 C-8.44833018 30.58646305 -8.60216711 23.85946085 -13.2792511 18.61865234 C-16.32540498 15.92189947 -19.25528604 15.30882343 -23.25390625 14.9453125 C-28.6273302 15.41666548 -32.06218005 17.1480337 -35.56640625 21.1953125 C-38.74624672 25.5234287 -40.05812238 28.17794136 -40.13525391 33.57714844 C-40.1551236 34.63794617 -40.17499329 35.6987439 -40.19546509 36.79168701 C-40.2127919 38.49968475 -40.2127919 38.49968475 -40.23046875 40.2421875 C-40.2498349 41.41291809 -40.26920105 42.58364868 -40.28915405 43.78985596 C-40.34893332 47.52910069 -40.39532925 51.26837624 -40.44140625 55.0078125 C-40.47958749 57.54298218 -40.5186393 60.0781389 -40.55859375 62.61328125 C-40.65463377 68.82801981 -40.73867143 75.0428191 -40.81640625 81.2578125 C-48.07640625 81.2578125 -55.33640625 81.2578125 -62.81640625 81.2578125 C-62.81640625 54.1978125 -62.81640625 27.1378125 -62.81640625 -0.7421875 C-55.88640625 -0.7421875 -48.95640625 -0.7421875 -41.81640625 -0.7421875 C-41.48640625 2.8878125 -41.15640625 6.5178125 -40.81640625 10.2578125 C-39.97078125 9.1853125 -39.12515625 8.1128125 -38.25390625 7.0078125 C-28.89917234 -3.88770111 -12.76373581 -5.99413537 0 0 Z " fill="#FBFAFB" transform="translate(836.81640625,667.7421875)"/>
<path d="M0 0 C23.03155717 -2.37954522 23.03155717 -2.37954522 29.29394531 1.37548828 C32.7768225 4.7539356 35.033778 8.73681739 37.07373047 13.10644531 C37.99701783 14.99390361 39.05310504 16.64577749 40.25390625 18.3671875 C42 21 42 21 42 23 C45.02350324 20.49682058 46.62562017 17.92036264 48.3203125 14.453125 C51.18091685 8.96153877 53.93154152 3.73524014 59 0 C67.41226037 -2.3563718 76.455139 -1.18160378 85 0 C83.23961733 3.64975258 81.06219547 6.85324929 78.6875 10.125 C78.25888672 10.72175537 77.83027344 11.31851074 77.38867188 11.93334961 C74.78555932 15.55232222 72.15704094 19.15213249 69.51953125 22.74609375 C68.93534424 23.5457959 68.35115723 24.34549805 67.74926758 25.16943359 C66.60149244 26.73963483 65.44912908 28.3064946 64.29174805 29.86962891 C62.8183164 31.88727279 61.3981659 33.92977083 60 36 C59.43152344 36.83015625 58.86304688 37.6603125 58.27734375 38.515625 C57.78309315 42.94299659 60.93283268 45.83792101 63.5625 49.1875 C64.76856656 50.78880844 65.97428528 52.39037891 67.1796875 53.9921875 C67.80842773 54.81428711 68.43716797 55.63638672 69.08496094 56.48339844 C72.1791789 60.549589 75.18486674 64.67848922 78.1875 68.8125 C79.01519897 69.93144653 79.01519897 69.93144653 79.85961914 71.07299805 C80.37387451 71.777229 80.88812988 72.48145996 81.41796875 73.20703125 C81.86938232 73.8203833 82.3207959 74.43373535 82.78588867 75.06567383 C84.17978911 77.28644061 85.09051066 79.54583503 86 82 C77.438614 83.46511814 68.39295516 84.74027881 60 82 C52.72837782 76.22502923 47.78629981 67.38307434 44 59 C44 58.34 44 57.68 44 57 C43.34 57 42.68 57 42 57 C41.71833984 57.72469482 41.43667969 58.44938965 41.14648438 59.19604492 C37.73895274 67.52983981 33.40990178 76.57966388 26 82 C17.5796505 84.43018006 8.55688304 83.25467493 0 82 C3.09745684 76.27046777 6.72056902 71.14305508 10.625 65.9375 C11.86739814 64.25666609 13.10958383 62.57567513 14.3515625 60.89453125 C16.61132888 57.84961195 18.89608617 54.82740692 21.2109375 51.82421875 C22.14080641 50.59128263 23.07050579 49.35821863 24 48.125 C24.43908691 47.57320068 24.87817383 47.02140137 25.33056641 46.45288086 C26.67292401 44.73789168 26.67292401 44.73789168 28 42 C27.16677302 37.62039373 24.16946263 34.16974432 21.5625 30.625 C21.12655518 30.02284668 20.69061035 29.42069336 20.24145508 28.80029297 C17.86909344 25.53065687 15.470476 22.28050531 13.0703125 19.03125 C12.58876709 18.37817871 12.10722168 17.72510742 11.61108398 17.05224609 C10.69198269 15.80796799 9.76983216 14.5659338 8.84399414 13.32666016 C5.65659622 9.02376268 2.78080559 4.57533028 0 0 Z " fill="#FBFAFB" transform="translate(494,667)"/>
<path d="M0 0 C0.99 0.33 1.98 0.66 3 1 C4.06537558 4.19612673 4.28418829 6.83529758 4.5 10.1953125 C4.62375 12.10957031 4.62375 12.10957031 4.75 14.0625 C4.811875 15.06990234 4.811875 15.06990234 4.875 16.09765625 C4.99488179 18.041989 5.12227379 19.9858543 5.25 21.9296875 C6.83049472 46.9212603 7.24677933 71.91466592 7.53222656 96.94732666 C7.58338449 101.36660849 7.63856697 105.78584013 7.69335938 110.20507812 C7.79939847 118.80334242 7.90115396 127.40165001 8 136 C9.20700813 135.26680542 9.20700813 135.26680542 10.43840027 134.51879883 C13.4609376 132.68288183 16.48357269 130.84712596 19.50627136 129.01147461 C20.80755897 128.22117329 22.10880905 127.43081016 23.41001892 126.64038086 C32.58935188 121.06440395 41.78157997 115.51113226 51 110 C53.29190357 108.62539273 55.58358117 107.25041461 57.875 105.875 C59.11847479 105.1288816 60.36196521 104.38278924 61.60546875 103.63671875 C62.28786621 103.22728027 62.97026367 102.8178418 63.67333984 102.39599609 C66.38248698 100.77050781 69.09163411 99.14501953 71.80078125 97.51953125 C72.83936279 96.8963501 73.87794434 96.27316895 74.94799805 95.63110352 C77.11992109 94.32801516 79.29196016 93.02512016 81.46411133 91.72241211 C86.38239053 88.77247513 91.29968206 85.82099353 96.2109375 82.859375 C107.19149399 76.24280164 118.23999393 69.74994522 129.32421875 63.30859375 C132.71210817 61.3383677 136.0923241 59.35720925 139.45703125 57.34765625 C175.86535051 35.61374239 175.86535051 35.61374239 191 30 C191.66 30.33 192.32 30.66 193 31 C185.2436499 37.78861182 177.21843386 43.74132623 168.56005859 49.33691406 C165.47374111 51.34187255 162.40281213 53.36981548 159.33203125 55.3984375 C147.38156834 63.28407887 135.39773848 71.08719631 123.18896484 78.56958008 C117.90939027 81.80670285 112.68578684 85.11480817 107.5 88.5 C100.4895461 93.0714226 93.39850195 97.5008682 86.27368164 101.89160156 C80.63306867 105.3679055 75.00936029 108.86947983 69.39770508 112.39233398 C57.23198915 120.02688512 44.99103387 127.52912887 32.69140625 134.9453125 C28.4455639 137.50702942 24.22484616 140.10206231 20.02734375 142.7421875 C19.11823242 143.30719971 18.20912109 143.87221191 17.27246094 144.4543457 C15.60778814 145.48997091 13.95021761 146.53714629 12.30175781 147.59838867 C7.74823447 150.40765904 4.51745966 151.87045637 -1 151 C-3.1085905 149.42394543 -3.9008173 148.54675114 -4.37473011 145.93427563 C-4.37456237 145.13533036 -4.37439463 144.3363851 -4.3742218 143.51322937 C-4.38123611 142.59324661 -4.38825043 141.67326385 -4.39547729 140.72540283 C-4.38783356 139.71733582 -4.38018982 138.7092688 -4.37231445 137.6706543 C-4.37596512 136.60649796 -4.37961578 135.54234161 -4.38337708 134.44593811 C-4.3915191 130.9052053 -4.37781774 127.36492587 -4.36328125 123.82421875 C-4.36276205 121.34446717 -4.36328206 118.86471517 -4.36479187 116.38496399 C-4.36470192 111.16178371 -4.35458669 105.93871959 -4.33618164 100.71557617 C-4.31302908 94.10931672 -4.31307996 87.50324474 -4.3194294 80.89694023 C-4.37288381 7.70893548 -4.37288381 7.70893548 0 0 Z " fill="#F4F4F5" transform="translate(774,461)"/>
<path d="M0 0 C1.51400391 0.01740234 1.51400391 0.01740234 3.05859375 0.03515625 C4.07050781 0.04417969 5.08242188 0.05320312 6.125 0.0625 C6.90746094 0.07410156 7.68992187 0.08570313 8.49609375 0.09765625 C8.72296875 1.21140625 8.94984375 2.32515625 9.18359375 3.47265625 C10.11221052 7.19474485 10.11221052 7.19474485 12.87109375 8.59765625 C17.34899992 9.45059076 19.40286607 8.14427009 23.49609375 6.09765625 C26.13609375 8.73765625 28.77609375 11.37765625 31.49609375 14.09765625 C30.83609375 15.41765625 30.17609375 16.73765625 29.49609375 18.09765625 C28.19346451 21.65028146 28.74652422 24.43309412 29.49609375 28.09765625 C31.19765625 28.06671875 31.19765625 28.06671875 32.93359375 28.03515625 C36.49609375 28.09765625 36.49609375 28.09765625 37.49609375 29.09765625 C37.56835877 30.95053127 37.57990595 32.80599503 37.55859375 34.66015625 C37.54957031 35.67207031 37.54054688 36.68398438 37.53125 37.7265625 C37.51964844 38.50902344 37.50804687 39.29148437 37.49609375 40.09765625 C34.85609375 40.09765625 32.21609375 40.09765625 29.49609375 40.09765625 C28.23246082 44.05190706 28.23246082 44.05190706 27.49609375 48.09765625 C28.69929818 50.59806897 28.69929818 50.59806897 30.49609375 52.09765625 C28.94108394 55.91449851 26.4601388 58.28961357 23.49609375 61.09765625 C22.75359375 60.78828125 22.01109375 60.47890625 21.24609375 60.16015625 C16.91213786 58.34534947 16.91213786 58.34534947 12.37109375 58.59765625 C9.51547416 60.88215193 9.2669151 63.62896017 8.49609375 67.09765625 C4.53609375 67.09765625 0.57609375 67.09765625 -3.50390625 67.09765625 C-3.84421875 65.45796875 -3.84421875 65.45796875 -4.19140625 63.78515625 C-5.18715541 60.03148899 -5.18715541 60.03148899 -7.87890625 58.03515625 C-10.41245372 56.82945563 -10.41245372 56.82945563 -12.62890625 57.78515625 C-13.24765625 58.21828125 -13.86640625 58.65140625 -14.50390625 59.09765625 C-15.49390625 59.75765625 -16.48390625 60.41765625 -17.50390625 61.09765625 C-20.14390625 58.45765625 -22.78390625 55.81765625 -25.50390625 53.09765625 C-24.84390625 51.77765625 -24.18390625 50.45765625 -23.50390625 49.09765625 C-22.29615045 45.47438886 -22.96079497 44.45619256 -24.50390625 41.09765625 C-26.81390625 40.76765625 -29.12390625 40.43765625 -31.50390625 40.09765625 C-31.50390625 36.13765625 -31.50390625 32.17765625 -31.50390625 28.09765625 C-29.19390625 28.09765625 -26.88390625 28.09765625 -24.50390625 28.09765625 C-24.35953125 27.35515625 -24.21515625 26.61265625 -24.06640625 25.84765625 C-23.50390625 23.09765625 -23.50390625 23.09765625 -22.75390625 21.03515625 C-22.2716628 18.93069153 -22.2716628 18.93069153 -23.94140625 16.84765625 C-24.45703125 16.27015625 -24.97265625 15.69265625 -25.50390625 15.09765625 C-23.94889644 11.28081399 -21.4679513 8.90569893 -18.50390625 6.09765625 C-17.39015625 6.56171875 -17.39015625 6.56171875 -16.25390625 7.03515625 C-12.94835934 8.34762119 -12.94835934 8.34762119 -9.50390625 9.09765625 C-8.51390625 8.43765625 -7.52390625 7.77765625 -6.50390625 7.09765625 C-5.51390625 7.09765625 -4.52390625 7.09765625 -3.50390625 7.09765625 C-3.52453125 6.12828125 -3.54515625 5.15890625 -3.56640625 4.16015625 C-3.48427841 0.13589229 -3.48427841 0.13589229 0 0 Z " fill="#F9F9F9" transform="translate(721.50390625,516.90234375)"/>
<path d="M0 0 C3 -0.3125 3 -0.3125 6 0 C8.43903803 2.43903803 8.25217475 3.05289719 8.26069641 6.39634705 C8.26778122 7.32031784 8.27486603 8.24428864 8.28216553 9.19625854 C8.27968811 10.2129361 8.27721069 11.22961365 8.2746582 12.27709961 C8.27976913 13.34546555 8.28488007 14.41383148 8.29014587 15.51457214 C8.30409242 19.06055235 8.30308129 22.60633931 8.30078125 26.15234375 C8.30466539 28.60852634 8.30899947 31.06470825 8.31376648 33.52088928 C8.3212396 38.67499975 8.3209295 43.82904172 8.31567383 48.9831543 C8.3098778 55.59906926 8.32680842 62.2147044 8.3500185 68.83057308 C8.36472632 73.90480701 8.36563156 78.9789731 8.36250877 84.05322456 C8.36302347 86.49295163 8.36828888 88.93268235 8.37832069 91.37238884 C8.39061046 94.77961459 8.38393803 98.18628941 8.37231445 101.59350586 C8.37995819 102.60815918 8.38760193 103.6228125 8.39547729 104.66821289 C8.38846298 105.59500351 8.38144867 106.52179413 8.3742218 107.47666931 C8.37438954 108.28248412 8.37455729 109.08829893 8.37473011 109.91853237 C7.90539336 112.52549995 7.11200948 113.43934341 5 115 C2.4375 114.875 2.4375 114.875 0 114 C-2.09615807 110.85576289 -2.25054845 110.14010174 -2.25396729 106.55932617 C-2.25960693 105.65080902 -2.26524658 104.74229187 -2.27105713 103.8062439 C-2.26700867 102.8118631 -2.26296021 101.8174823 -2.25878906 100.79296875 C-2.2622937 99.74396393 -2.26579834 98.69495911 -2.26940918 97.61416626 C-2.27822854 94.13854399 -2.27237653 90.66312443 -2.265625 87.1875 C-2.26697159 84.77758749 -2.26891207 82.36767525 -2.27142334 79.95776367 C-2.27437488 74.90378232 -2.27007593 69.84987159 -2.26074219 64.79589844 C-2.24934771 58.30897907 -2.255907 51.82222518 -2.26788712 45.33531189 C-2.27510485 40.35801948 -2.27281817 35.38076648 -2.26763153 30.4034729 C-2.2662948 28.01119975 -2.26794357 25.61892306 -2.27259064 23.22665405 C-2.27765438 19.886683 -2.26994756 16.54698212 -2.25878906 13.20703125 C-2.26283752 12.21265045 -2.26688599 11.21826965 -2.27105713 10.1937561 C-2.26541748 9.28523895 -2.25977783 8.3767218 -2.25396729 7.44067383 C-2.25321323 6.65090652 -2.25245918 5.86113922 -2.25168228 5.04743958 C-2 3 -2 3 0 0 Z " fill="#FBFBFB" transform="translate(969,349)"/>
<path d="M0 0 C2.3125 1.25 2.3125 1.25 3.3125 2.25 C3.41219884 3.62409777 3.44324575 5.0032595 3.44621277 6.38096619 C3.45047775 7.27135086 3.45474274 8.16173553 3.45913696 9.07910156 C3.45868378 10.06354248 3.45823059 11.0479834 3.45776367 12.06225586 C3.46280159 13.60847374 3.46280159 13.60847374 3.46794128 15.18592834 C3.47748331 18.61224555 3.47939601 22.03851406 3.48046875 25.46484375 C3.48367901 27.83516968 3.4870429 30.20549542 3.49055481 32.57582092 C3.49655418 37.55177266 3.49839388 42.52770701 3.49780273 47.50366211 C3.49770105 53.89431984 3.51135603 60.28486661 3.52857494 66.67549801 C3.53966801 71.5729677 3.54172278 76.47041034 3.54119301 81.36789131 C3.5423771 83.72471054 3.54682266 86.08153039 3.55452538 88.43833733 C3.56427129 91.72842153 3.56146867 95.01826187 3.55541992 98.30834961 C3.56103943 99.2907663 3.56665894 100.27318298 3.57244873 101.28536987 C3.56825424 102.17857437 3.56405975 103.07177887 3.55973816 103.99205017 C3.56028293 104.77058822 3.56082769 105.54912626 3.56138897 106.35125637 C3.3125 108.25 3.3125 108.25 1.3125 110.25 C-1.49813871 110.6103383 -3.03054 110.75162015 -5.32342625 109.00089264 C-7.02841194 106.81241354 -7.06646495 105.67646466 -7.07518005 102.92321777 C-7.08508469 102.03994308 -7.09498932 101.1566684 -7.10519409 100.24662781 C-7.10069244 99.28029922 -7.0961908 98.31397064 -7.09155273 97.31835938 C-7.09841599 96.29861526 -7.10527924 95.27887115 -7.11235046 94.22822571 C-7.13068553 90.84992641 -7.12677165 87.47208848 -7.12109375 84.09375 C-7.12565202 81.75109708 -7.13095653 79.40844551 -7.13697815 77.0657959 C-7.14592224 72.15302095 -7.14347094 67.24040845 -7.13354492 62.32763672 C-7.12204843 56.02216603 -7.14227112 49.71725477 -7.17146206 43.4118576 C-7.18977898 38.57351095 -7.18954068 33.73529949 -7.18382454 28.89692688 C-7.1836708 26.57163203 -7.18975824 24.24632831 -7.20211601 21.92106628 C-7.21694037 18.67423045 -7.20641175 15.42844292 -7.18920898 12.18164062 C-7.19887695 11.21531204 -7.20854492 10.24898346 -7.21850586 9.25337219 C-7.14647663 2.7839086 -7.14647663 2.7839086 -4.82411194 0.08239746 C-2.6875 -0.75 -2.6875 -0.75 0 0 Z " fill="#F1F2F3" transform="translate(955.6875,364.75)"/>
<path d="M0 0 C1.875 0.75 1.875 0.75 2.875 1.75 C3.11807451 4.8202834 3.29641752 7.86882591 3.42700195 10.94458008 C3.46904157 11.88799916 3.51108118 12.83141825 3.55439472 13.80342579 C3.97960065 24.08068842 4.03900411 34.35208696 4.04296875 44.63671875 C4.04619316 46.64215619 4.04955806 48.64759341 4.05305481 50.6530304 C4.05897015 54.80327909 4.06090189 58.95350717 4.06030273 63.10375977 C4.06019974 68.42889754 4.07402449 73.75390606 4.09107494 79.07901287 C4.10214812 83.19581215 4.10422365 87.31257921 4.10369301 91.42939186 C4.10487354 93.39545971 4.10929943 95.36152838 4.11702538 97.32758141 C4.12676092 100.05271295 4.12397664 102.77754984 4.11791992 105.50268555 C4.12353943 106.31342026 4.12915894 107.12415497 4.13494873 107.9594574 C4.10333927 113.52166073 4.10333927 113.52166073 1.875 115.75 C-0.625 116 -0.625 116 -3.125 115.75 C-5.57121138 113.30378862 -5.37721927 112.67212553 -5.38569641 109.31568909 C-5.39278122 108.38330414 -5.39986603 107.45091919 -5.40716553 106.49028015 C-5.4034494 104.95123772 -5.4034494 104.95123772 -5.3996582 103.38110352 C-5.40476913 102.30298401 -5.40988007 101.2248645 -5.41514587 100.11407471 C-5.42909272 96.53562939 -5.42808127 92.95737558 -5.42578125 89.37890625 C-5.42966537 86.90030342 -5.43399945 84.42170126 -5.43876648 81.94309998 C-5.44623966 76.74191126 -5.44592945 71.54079041 -5.44067383 66.33959961 C-5.43530093 60.98991688 -5.44234562 55.64042333 -5.46118164 50.29077148 C-5.48359527 43.84345963 -5.49144074 37.39630611 -5.48750877 30.94895744 C-5.48802348 28.48690174 -5.49328909 26.02484241 -5.50332069 23.56280708 C-5.51561001 20.12444999 -5.50893829 16.68663889 -5.49731445 13.24829102 C-5.50495819 12.22428696 -5.51260193 11.2002829 -5.52047729 10.14524841 C-5.51346298 9.21004364 -5.50644867 8.27483887 -5.4992218 7.31129456 C-5.49938954 6.4981054 -5.49955729 5.68491625 -5.49973011 4.847085 C-4.91147673 1.5550695 -3.45714703 -0.40672318 0 0 Z " fill="#F3F3F4" transform="translate(938.125,369.25)"/>
<path d="M0 0 C4.04176093 2.18512163 6.38829667 4.82756862 8.5 8.875 C9.28157031 13.75981445 9.43535496 17.80399286 6.6953125 21.99609375 C1.07597673 28.71972685 1.07597673 28.71972685 -3.48828125 29.3359375 C-9.48245307 29.41884444 -13.44674488 29.33114512 -18 25 C-20.76300123 21.57872888 -22.2466507 18.35422288 -22.5 13.9375 C-21.77938648 8.26266856 -19.60654291 5.4152878 -15.375 1.6875 C-10.35103051 -1.88216253 -5.90647684 -1.31797417 0 0 Z " fill="#313646" transform="translate(731,536)"/>
<path d="M0 0 C0.57842104 8.74058462 -0.29438441 14.59958148 -6 21.375 C-11.53740143 25.87413866 -17.10010925 25.60881389 -24 25 C-28.2117209 23.47506657 -29.51986208 22.72020689 -32 19 C-32.7952817 14.91098525 -32.97310388 10.89127448 -31.03125 7.1171875 C-23.94559729 -0.38305128 -9.61294437 -0.19507666 0 0 Z " fill="#2F3544" transform="translate(921,711)"/>
<path d="M0 0 C3.69548184 2.17336739 5.70871337 4.44497233 7.5625 8.375 C8.0575 12.83 8.0575 12.83 8.5625 17.375 C-3.6475 17.375 -15.8575 17.375 -28.4375 17.375 C-27.44176067 9.40908537 -26.69658261 6.77052108 -21.4375 1.375 C-15.34533542 -3.15870387 -6.81029487 -3.04235602 0 0 Z " fill="#313645" transform="translate(636.4375,683.625)"/>
<path d="M0 0 C2.83070669 2.09851466 4.1904322 4.07184127 5.69140625 7.25390625 C6.18640625 11.70890625 6.18640625 11.70890625 6.69140625 16.25390625 C-5.18859375 16.25390625 -17.06859375 16.25390625 -29.30859375 16.25390625 C-29.30859375 8.56649088 -28.26760622 5.76269837 -23.30859375 0.25390625 C-16.0920586 -4.32581798 -7.35282666 -4.26315404 0 0 Z " fill="#303544" transform="translate(730.30859375,684.74609375)"/>
<path d="M0 0 C0.06316406 0.92039062 0.12632812 1.84078125 0.19140625 2.7890625 C1.17465625 12.95276245 3.97110788 20.11641463 9 29 C9.67618557 30.32853126 10.34772206 31.65956883 11 33 C0.70152569 33.84516355 -8.28848972 32.97993503 -17 27 C-19.16799473 22.29042953 -19.52135579 18.98666619 -18 14 C-14.23441493 8.57120366 -7.28368314 0 0 0 Z " fill="#343948" transform="translate(698,429)"/>
<path d="M0 0 C4.00185909 0.15101355 6.25905549 0.28800892 9.19921875 3.11328125 C11.95445023 7.53001892 11.48781926 11.63583034 11.53125 16.72265625 C12.08105697 20.56672332 13.1324877 21.52584426 16 24 C15.9375 26.0625 15.9375 26.0625 15 28 C14.49597656 28.42410156 13.99195313 28.84820312 13.47265625 29.28515625 C11.45357038 31.63629338 11.60067356 33.31284578 11.5 36.375 C11.12930203 41.88458951 10.14540415 44.92610932 6.125 48.8125 C3.57242944 50.23893649 1.8802715 50.24002263 -1 50 C-1.25 47.25 -1.25 47.25 -1 44 C-0.34902344 43.39671875 0.30195312 42.7934375 0.97265625 42.171875 C3.57601714 39.38291806 3.55116111 37.76107276 3.6875 34 C3.94157224 28.19263456 3.94157224 28.19263456 4.64453125 25.875 C5.12676024 23.33137457 4.16457051 22.27905196 3 20 C2.6741241 16.88974144 2.55981463 13.80414096 2.44140625 10.6796875 C2.22291016 9.35324219 2.22291016 9.35324219 2 8 C1.01 7.34 0.02 6.68 -1 6 C-1.25 3.4375 -1.25 3.4375 -1 1 C-0.67 0.67 -0.34 0.34 0 0 Z " fill="#F3F2F2" transform="translate(621,348)"/>
<path d="M0 0 C0.25 2.75 0.25 2.75 0 6 C-0.65097656 6.60457031 -1.30195312 7.20914062 -1.97265625 7.83203125 C-4.56676936 10.60608285 -4.55056951 12.19315923 -4.6875 15.9375 C-4.82164755 18.96923461 -4.95399104 21.7823066 -5.58203125 24.75390625 C-6.23846799 27.02581245 -6.23846799 27.02581245 -5 29 C-4.84198015 32.05066098 -4.74608726 35.09850909 -4.671875 38.15234375 C-4.28655614 41.22082099 -4.28655614 41.22082099 -1.4765625 42.71484375 C-0.65929687 43.13894531 0.15796875 43.56304687 1 44 C1.375 46.625 1.375 46.625 1 49 C0 50 0 50 -2.75 50.375 C-7.044205 49.87951481 -8.31953337 48.29314471 -11 45 C-12.33657778 40.99026665 -12.27461388 37.11677919 -12.42578125 32.91015625 C-13.11229792 29.43087108 -14.31134414 28.2271301 -17 26 C-15.84826645 23.53199953 -14.95216435 21.95216435 -13 20 C-12.68866316 16.49078909 -12.62070001 13.00201387 -12.5390625 9.48046875 C-11.9207786 5.48850534 -10.80716167 3.84395967 -8 1 C-5.29120665 -0.35439668 -2.99066732 -0.06501451 0 0 Z " fill="#F2F4F6" transform="translate(606,348)"/>
<path d="M0 0 C7.51655727 -0.73691738 14.44708114 1.24088932 21 5 C22.52989468 7.76838086 23.05463995 9.28968071 22.8125 12.4375 C21.84836339 15.47823854 20.44923888 18.16190719 19 21 C18.31363375 23.23525035 18.31363375 23.23525035 18 25 C17.34 25 16.68 25 16 25 C15.74347656 24.41734375 15.48695313 23.8346875 15.22265625 23.234375 C12.18818019 16.73630506 8.36393751 11.2069581 3.98828125 5.56640625 C2.59034185 3.76199331 1.26614383 1.89921575 0 0 Z " fill="#343948" transform="translate(633,450)"/>
<path d="M0 0 C2.625 0.375 2.625 0.375 5 1 C5.625 3.375 5.625 3.375 6 6 C4 8 4 8 1.4375 8.1875 C-1 8 -1 8 -2 7 C-2.1875 4.5625 -2.1875 4.5625 -2 2 C-1.34 1.34 -0.68 0.68 0 0 Z " fill="#393F4D" transform="translate(665,450)"/>
<path d="M0 0 C2.64 0 5.28 0 8 0 C8 3.63 8 7.26 8 11 C7.67 11 7.34 11 7 11 C6.67 8.03 6.34 5.06 6 2 C4.02 2 2.04 2 0 2 C0 1.34 0 0.68 0 0 Z " fill="#494D5A" transform="translate(913,711)"/>
</svg>
