<?xml version="1.0" encoding="UTF-8"?>
<svg version="1.1" xmlns="http://www.w3.org/2000/svg" width="612" height="408">
<path d="M0 0 C1.36191559 0.96071 2.69371117 1.96492161 4 3 C5.50500922 3.86158326 7.02799985 4.69210907 8.5625 5.5 C13.61861464 8.22098801 18.59870479 11.05305485 23.5625 13.9375 C24.34923096 14.39455322 25.13596191 14.85160645 25.9465332 15.32250977 C27.66835069 16.32298234 29.39010869 17.32355729 31.11181641 18.32421875 C36.07597784 21.20452341 41.047643 24.07182454 46.01925659 26.9392395 C47.71422325 27.91686464 49.40899363 28.89483002 51.10375977 29.87280273 C57.53511109 33.58337789 57.53511109 33.58337789 63.98046875 37.26953125 C66.53003779 38.73066849 69.0520811 40.22309047 71.5625 41.75 C76.3619004 44.64289012 81.21671747 47.4306296 86.09008789 50.19628906 C87.72885733 51.12711572 89.36450392 52.06343387 91 53 C91.94488281 53.53238281 92.88976562 54.06476563 93.86328125 54.61328125 C96 56 96 56 96.875 58 C97 60 97 60 96 63 C94.3828125 64.18359375 94.3828125 64.18359375 92.125 65.4375 C86.81036994 68.49743852 81.61848785 71.72086181 76.4375 75 C75.64682129 75.49814209 74.85614258 75.99628418 74.04150391 76.50952148 C69.33252952 79.48615108 64.67908138 82.53066792 60.0703125 85.66040039 C57.9507739 87.03185184 55.78836035 88.24774901 53.5625 89.4375 C50.20015923 91.25608779 47.10873178 93.27535886 44 95.5 C40.19106891 98.22571112 36.32770912 100.54622294 32.20703125 102.76171875 C29.15412412 104.47458877 26.28841348 106.42420415 23.39453125 108.390625 C19.81234587 110.79822757 16.15803424 113.08961291 12.51171875 115.3984375 C10.53269384 116.66033519 8.57151241 117.93898136 6.625 119.25 C5.75875 119.8275 4.8925 120.405 4 121 C3.154375 121.598125 2.30875 122.19625 1.4375 122.8125 C-1.52053455 124.25359375 -2.91614016 123.96921309 -6 123 C-6.33 122.01 -6.66 121.02 -7 120 C-3.74173334 116.5826498 -0.52021818 113.81894883 3.4375 111.25 C4.48421875 110.56808594 5.5309375 109.88617188 6.609375 109.18359375 C7.16044922 108.82894043 7.71152344 108.47428711 8.27929688 108.10888672 C10.05084761 106.96723186 11.81482925 105.81451319 13.578125 104.66015625 C19.23300461 100.97381997 24.90903241 97.43774185 30.859375 94.2421875 C34.24598636 92.27696412 37.36829481 89.95177079 40.55078125 87.67578125 C42.71873386 86.19244526 44.87042743 84.91776555 47.1875 83.6875 C51.27466882 81.49386219 55.1010134 78.97418465 58.9375 76.375 C67.44290327 70.61636237 76.20378106 65.29989824 85 60 C80.89583318 56.4290517 76.56545907 54.06255981 71.75 51.625 C67.22621545 49.33447618 62.87632088 46.98167562 58.68359375 44.12109375 C53.41957108 40.53678835 47.88961215 37.50314581 42.3125 34.4375 C33.78976975 29.7096963 25.32352739 24.90409397 16.9375 19.9375 C16.05296143 19.41406006 15.16842285 18.89062012 14.25708008 18.35131836 C13.41814209 17.85253174 12.5792041 17.35374512 11.71484375 16.83984375 C10.91675293 16.36659668 10.11866211 15.89334961 9.29638672 15.40576172 C7.78151315 14.478413 6.2870828 13.51669603 4.81689453 12.52001953 C0.76750416 9.78943653 -1.94332494 8.08438806 -7 9 C-9.79210637 10.3046918 -9.79210637 10.3046918 -12.5625 12.25 C-13.70206992 12.99061876 -14.84418709 13.72732704 -15.98828125 14.4609375 C-16.61943848 14.86666992 -17.2505957 15.27240234 -17.90087891 15.69042969 C-21.94300432 18.21217436 -26.10403265 20.52947713 -30.25 22.875 C-36.65599118 26.51209289 -43.0390383 30.17972526 -49.375 33.9375 C-57.12100509 38.52709952 -64.9544167 42.95671015 -72.80810547 47.35913086 C-81.13090653 52.03477151 -89.35341685 56.83588008 -97.30859375 62.1171875 C-99 63 -99 63 -102 63 C-102 88.08 -102 113.16 -102 139 C-100.02 139.66 -98.04 140.32 -96 141 C-94.51219545 141.80173214 -93.05264809 142.65797928 -91.625 143.5625 C-87.32629988 146.21475313 -82.97259357 148.72769117 -78.5625 151.1875 C-72.22859542 154.73381078 -65.91675337 158.31689223 -59.625 161.9375 C-58.79814697 162.41018311 -57.97129395 162.88286621 -57.11938477 163.36987305 C-56.35037842 163.81371338 -55.58137207 164.25755371 -54.7890625 164.71484375 C-54.10537598 165.10792725 -53.42168945 165.50101074 -52.71728516 165.90600586 C-51 167 -51 167 -49 169 C-49 170.32 -49 171.64 -49 173 C-52.09088001 174.10862969 -54.22535137 174.32041307 -57.28662109 173.05419922 C-59.96964785 171.58697613 -62.58096952 170.03669916 -65.1875 168.4375 C-67.07901193 167.31440468 -68.97093435 166.19200039 -70.86328125 165.0703125 C-71.75998535 164.53180664 -72.65668945 163.99330078 -73.58056641 163.43847656 C-76.30600105 161.81806679 -79.0729846 160.29616927 -81.875 158.8125 C-86.88451964 156.11568192 -91.74922106 153.19473842 -96.61279297 150.24536133 C-99.68307591 148.38371743 -102.76464566 146.55598966 -105.890625 144.7890625 C-109 143 -109 143 -110 142 C-110.13226661 139.47125729 -110.1998094 136.96908647 -110.22460938 134.43847656 C-110.23599945 133.64656921 -110.24738953 132.85466187 -110.25912476 132.03875732 C-110.36980559 123.74801195 -110.41721441 115.45636779 -110.45996094 107.16503906 C-110.48224504 103.22839826 -110.52402112 99.2927042 -110.58300781 95.35644531 C-110.65401923 90.60895831 -110.69078162 85.86236308 -110.70307922 81.11437225 C-110.71349392 79.30418812 -110.73595179 77.49403171 -110.77067566 75.6841507 C-110.8168145 73.14807478 -110.81889177 70.61550319 -110.81054688 68.07910156 C-110.8459407 66.95828186 -110.8459407 66.95828186 -110.88204956 65.81481934 C-110.83452301 62.82873353 -110.61774451 60.63285777 -108.48348999 58.44638824 C-106.70490034 57.15568199 -104.92826754 56.05116465 -103 55 C-102.09636719 54.47535156 -101.19273437 53.95070312 -100.26171875 53.41015625 C-99.41222656 52.96542969 -98.56273437 52.52070313 -97.6875 52.0625 C-94.06323084 50.12922682 -90.50846807 48.13631681 -87 46 C-83.69228816 43.98821746 -80.35158279 42.08231446 -76.94140625 40.25 C-70.86883683 36.95267724 -64.898764 33.49361345 -58.9375 30 C-57.92623047 29.40960938 -56.91496094 28.81921875 -55.87304688 28.2109375 C-47.89274764 23.54505746 -39.96206754 18.80108358 -32.0625 14 C-27.64631983 11.34474568 -23.14439935 8.88068193 -18.59765625 6.45703125 C-16.22683103 5.12723004 -14.04255611 3.6742562 -11.8125 2.125 C-7.68626169 -0.50155827 -4.83546119 -0.64472816 0 0 Z " fill="#E6E8EA" transform="translate(310,98)"/>
<path d="M0 0 C6.62248678 1.87087909 10.53971913 7.43191985 13.8125 13.1875 C15 16 15 16 15 19 C15.86625 19.020625 16.7325 19.04125 17.625 19.0625 C21.61530837 20.17091899 23.32490801 21.41452681 25.85546875 24.6328125 C28.21941154 29.52205937 27.9324195 34.75082357 27 40 C24.75 43.125 24.75 43.125 22 45 C21.41120056 45.52468369 20.82240112 46.04936737 20.21575928 46.58995056 C17.28642004 48.45410304 15.25790991 48.39994931 11.79785156 48.43579102 C10.54264709 48.45493057 9.28744263 48.47407013 7.99420166 48.49378967 C6.62634631 48.49837729 5.25848629 48.50171832 3.890625 48.50390625 C2.4806081 48.51355373 1.07059418 48.52364669 -0.3394165 48.53416443 C-3.29503328 48.55211593 -6.25038725 48.55768682 -9.20605469 48.5559082 C-12.9769076 48.55560407 -16.74605629 48.59648604 -20.5165062 48.64822483 C-23.43011056 48.6817417 -26.34331037 48.68766108 -29.25708771 48.68607903 C-30.64607851 48.68959875 -32.03508209 48.7027536 -33.42388153 48.72607613 C-41.04329484 48.84201255 -46.66348184 48.76565653 -52.56329346 43.60557556 C-56.33131968 39.39465938 -57.25546267 35.43406768 -57 29.9375 C-56.27650616 24.81080711 -54.76982219 22.51850071 -51 19 C-49.01811655 17.63988391 -47.02048131 16.30208796 -45 15 C-44.34 14.01 -43.68 13.02 -43 12 C-42.34 12 -41.68 12 -41 12 C-40.67 11.01 -40.34 10.02 -40 9 C-37.29129019 7.6456451 -35.32593435 8.11967045 -32.3125 8.3125 C-27.8165116 8.37179961 -25.33999441 8.14051543 -21.9375 5.125 C-20.95323934 4.08814526 -19.97362397 3.04684917 -19 2 C-13.61668139 -1.58887907 -6.28497655 -0.50330143 0 0 Z M-21.390625 13.66796875 C-22.62573246 15.44905079 -22.62573246 15.44905079 -24 18 C-24.886875 17.505 -25.77375 17.01 -26.6875 16.5 C-29.90943677 15.04100977 -31.549703 14.44049238 -35 15 C-37.35713791 16.65872667 -37.93575151 17.78048432 -38.75 20.5625 C-39.1625 21.366875 -39.575 22.17125 -40 23 C-42.32206525 23.70491267 -44.65593068 24.37212429 -47 25 C-48.99035784 27.88697272 -49.25815803 30.11688367 -48.9375 33.5625 C-48.88464844 34.32691406 -48.83179688 35.09132813 -48.77734375 35.87890625 C-47.6439837 38.97144146 -45.89970373 39.55099461 -43 41 C-40.32500829 41.48420983 -40.32500829 41.48420983 -37.47875977 41.47998047 C-36.39736221 41.5094577 -35.31596466 41.53893494 -34.20179749 41.56930542 C-32.46415382 41.59300705 -32.46415382 41.59300705 -30.69140625 41.6171875 C-28.89218971 41.65478683 -28.89218971 41.65478683 -27.05662537 41.69314575 C-24.52249801 41.74207409 -21.98821921 41.78363548 -19.45385742 41.81835938 C-15.57978907 41.87474835 -11.70736294 41.96313805 -7.83398438 42.0546875 C-5.3698251 42.09828676 -2.90563188 42.14001578 -0.44140625 42.1796875 C0.71499863 42.20763397 1.8714035 42.23558044 3.06285095 42.26437378 C10.96388411 42.36667243 10.96388411 42.36667243 18 39 C20.22594981 36.29861553 20.22594981 36.29861553 21 33 C20.54489517 29.58786542 20.54489517 29.58786542 18 27 C14.7093101 25.89255628 11.44513914 25.37489319 8 25 C7.93683594 24.27554688 7.87367188 23.55109375 7.80859375 22.8046875 C7.1506239 17.61018871 6.65539588 13.89799899 2.5625 10.375 C-1.32217153 7.47198413 -4.925862 6.58431288 -9.80859375 6.65625 C-14.48727916 7.39016144 -18.38586156 10.0639407 -21.390625 13.66796875 Z " fill="#E8E9EC" transform="translate(315,129)"/>
<path d="M0 0 C-0.66 0.99 -1.32 1.98 -2 3 C-1.69159401 5.15274948 -1.69159401 5.15274948 -1 7 C-1.59425781 7.33733154 -2.18851563 7.67466309 -2.80078125 8.0222168 C-5.53485934 9.57554946 -8.26743522 11.13150684 -11 12.6875 C-12.40185547 13.48317383 -12.40185547 13.48317383 -13.83203125 14.29492188 C-18.76693064 17.10746943 -23.62171905 19.96868993 -28.34375 23.12817383 C-30 24 -30 24 -33 24 C-33 49.08 -33 74.16 -33 100 C-31.02 100.66 -29.04 101.32 -27 102 C-25.51219545 102.80173214 -24.05264809 103.65797928 -22.625 104.5625 C-18.32629988 107.21475313 -13.97259357 109.72769117 -9.5625 112.1875 C-3.22859542 115.73381078 3.08324663 119.31689223 9.375 122.9375 C10.20185303 123.41018311 11.02870605 123.88286621 11.88061523 124.36987305 C12.64962158 124.81371338 13.41862793 125.25755371 14.2109375 125.71484375 C15.23646729 126.30446899 15.23646729 126.30446899 16.28271484 126.90600586 C18 128 18 128 20 130 C20 131.32 20 132.64 20 134 C16.90911999 135.10862969 14.77464863 135.32041307 11.71337891 134.05419922 C9.03035215 132.58697613 6.41903048 131.03669916 3.8125 129.4375 C1.92098807 128.31440468 0.02906565 127.19200039 -1.86328125 126.0703125 C-2.75998535 125.53180664 -3.65668945 124.99330078 -4.58056641 124.43847656 C-7.30600105 122.81806679 -10.0729846 121.29616927 -12.875 119.8125 C-17.88451964 117.11568192 -22.74922106 114.19473842 -27.61279297 111.24536133 C-30.68307591 109.38371743 -33.76464566 107.55598966 -36.890625 105.7890625 C-40 104 -40 104 -41 103 C-41.13226661 100.47125729 -41.1998094 97.96908647 -41.22460938 95.43847656 C-41.24169449 94.25061554 -41.24169449 94.25061554 -41.25912476 93.03875732 C-41.36980559 84.74801195 -41.41721441 76.45636779 -41.45996094 68.16503906 C-41.48224504 64.22839826 -41.52402112 60.2927042 -41.58300781 56.35644531 C-41.65401923 51.60895831 -41.69078162 46.86236308 -41.70307922 42.11437225 C-41.71349392 40.30418812 -41.73595179 38.49403171 -41.77067566 36.6841507 C-41.8168145 34.14807478 -41.81889177 31.61550319 -41.81054688 29.07910156 C-41.83414276 28.33188843 -41.85773865 27.58467529 -41.88204956 26.81481934 C-41.83452301 23.82873353 -41.61774451 21.63285777 -39.48348999 19.44638824 C-37.70490034 18.15568199 -35.92826754 17.05116465 -34 16 C-33.09636719 15.47535156 -32.19273437 14.95070312 -31.26171875 14.41015625 C-30.41222656 13.96542969 -29.56273437 13.52070313 -28.6875 13.0625 C-25.02302746 11.10744625 -21.42631673 9.09148682 -17.875 6.9375 C-17.06546875 6.45023438 -16.2559375 5.96296875 -15.421875 5.4609375 C-13.78279113 4.47219981 -12.14746115 3.47721674 -10.515625 2.4765625 C-9.72671875 2.00992188 -8.9378125 1.54328125 -8.125 1.0625 C-7.42632812 0.64097656 -6.72765625 0.21945313 -6.0078125 -0.21484375 C-3.58117948 -1.16378001 -2.41118563 -0.87040558 0 0 Z " fill="#DFE1E3" transform="translate(241,137)"/>
<path d="M0 0 C2.43044773 2.26841789 2.96070783 3.42371483 3.1875 6.75 C3.0946875 7.86375 3.0946875 7.86375 3 9 C2.01 9.33 1.02 9.66 0 10 C0.45261358 11.43931117 0.91232979 12.87638999 1.375 14.3125 C1.75785156 15.51326172 1.75785156 15.51326172 2.1484375 16.73828125 C2.98831811 19.22724528 2.98831811 19.22724528 5 22 C5.99 22.33 6.98 22.66 8 23 C11 24 11 24 13 27 C13 30.4375 13 30.4375 12 34 C9.25 36.5 9.25 36.5 6 38 C3.125 37.75 3.125 37.75 1 37 C0.67 35.35 0.34 33.7 0 32 C-0.64066406 32.03480469 -1.28132813 32.06960937 -1.94140625 32.10546875 C-6.29573333 32.24174426 -9.89118697 32.34695287 -13.875 30.4375 C-17.06812219 28.5737773 -17.06812219 28.5737773 -21 30 C-21.66 32.97 -22.32 35.94 -23 39 C-21.35 39 -19.7 39 -18 39 C-17.34 40.98 -16.68 42.96 -16 45 C-16.639375 45.268125 -17.27875 45.53625 -17.9375 45.8125 C-20.33131686 46.88667752 -20.33131686 46.88667752 -21 50 C-24.1875 50.875 -24.1875 50.875 -28 51 C-31 48.4375 -31 48.4375 -33 45 C-32.71382812 43.58654297 -32.71382812 43.58654297 -32.421875 42.14453125 C-31.87237386 38.04871259 -32.958961 36.62136633 -35.25 33.25 C-35.87390625 32.30640625 -36.4978125 31.3628125 -37.140625 30.390625 C-39.32389663 27.58356148 -41.17059078 26.26298341 -44.5625 25.1875 C-47 24 -47 24 -48.375 21.75 C-49.13923733 18.38735576 -48.98471861 16.30584106 -48 13 C-45.80884568 9.91615318 -44.67669906 9.12429166 -40.9375 8.4375 C-39.968125 8.623125 -38.99875 8.80875 -38 9 C-37.5875 9.78375 -37.175 10.5675 -36.75 11.375 C-34.63508411 14.54737384 -33.74562303 14.63113705 -30.125 15.4375 C-26.16058781 16.03100938 -23.40332401 16.40234636 -20 14 C-18.60287726 12.04402816 -17.26220093 10.04563599 -16 8 C-15.34 7.67 -14.68 7.34 -14 7 C-14.04125 6.21625 -14.0825 5.4325 -14.125 4.625 C-14 2 -14 2 -12 0 C-7.7408094 -1.06479765 -4.234185 -1.223209 0 0 Z M-8 12 C-12.34401474 15.75975585 -12.34401474 15.75975585 -14 21 C-13.16745087 23.23339896 -13.16745087 23.23339896 -10.71484375 23.8515625 C-9.79832031 24.10679687 -8.88179688 24.36203125 -7.9375 24.625 C-7.01839844 24.88539063 -6.09929687 25.14578125 -5.15234375 25.4140625 C-4.44207031 25.60742188 -3.73179687 25.80078125 -3 26 C-3.44962196 24.03964825 -3.90998248 22.08175691 -4.375 20.125 C-4.63023437 19.03445312 -4.88546875 17.94390625 -5.1484375 16.8203125 C-5.78906215 13.89591545 -5.78906215 13.89591545 -8 12 Z M-34 22 C-32.35 24.64 -30.7 27.28 -29 30 C-28.34 29.01 -27.68 28.02 -27 27 C-27.33 26.01 -27.66 25.02 -28 24 C-31.00847418 22.77479736 -31.00847418 22.77479736 -34 22 Z " fill="#EBEDEF" transform="translate(275,200)"/>
<path d="M0 0 C0.99 0.33 1.98 0.66 3 1 C4.25175221 4.15662946 4.15416935 7.41684304 4.20532227 10.77832031 C4.22526749 11.9392218 4.24521271 13.10012329 4.26576233 14.29620361 C4.28247482 15.54423767 4.29918732 16.79227173 4.31640625 18.078125 C4.3475779 20.00069122 4.3475779 20.00069122 4.37937927 21.96209717 C4.43444747 25.36176272 4.48392364 28.76148738 4.53222656 32.16125488 C4.58255332 35.63359814 4.63818093 39.10585605 4.69335938 42.578125 C4.80075422 49.38534261 4.90224027 56.19263739 5 63 C8.43843075 61.65737084 11.52578081 60.1991878 14.67578125 58.26953125 C15.98216553 57.47216553 15.98216553 57.47216553 17.31494141 56.65869141 C18.20101074 56.11132324 19.08708008 55.56395508 20 55 C20.8357959 54.4848584 21.6715918 53.9697168 22.53271484 53.43896484 C25.08702515 51.85947594 27.63758879 50.27407953 30.1875 48.6875 C37.07404313 44.41128697 43.98465037 40.18350459 50.95092773 36.03857422 C54.59628567 33.86319208 58.18514345 31.61710445 61.75 29.3125 C66.14030863 26.49386991 70.62028239 23.93660492 75.2265625 21.48828125 C77.15466979 20.45362086 79.06523687 19.38587267 80.9609375 18.29296875 C82.40339844 17.46732422 82.40339844 17.46732422 83.875 16.625 C84.73867188 16.12226563 85.60234375 15.61953125 86.4921875 15.1015625 C89.21287711 13.90649323 91.06225196 13.77887918 94 14 C91.23949007 17.736709 88.53354589 20.28321264 84.6875 22.875 C84.15133057 23.23867676 83.61516113 23.60235352 83.06274414 23.97705078 C76.05962376 28.69400104 68.96030601 33.2717252 61.87182617 37.85888672 C60.43286987 38.79112061 60.43286987 38.79112061 58.96484375 39.7421875 C58.1049585 40.2976123 57.24507324 40.85303711 56.35913086 41.42529297 C53.99137649 42.95597013 53.99137649 42.95597013 51.87719727 44.70361328 C50 46 50 46 47 46 C47 46.66 47 47.32 47 48 C44.76171875 49.48046875 44.76171875 49.48046875 41.6875 51.1875 C33.47276106 55.84861799 25.58900108 60.92249928 17.75 66.1875 C15.8353915 67.46143201 13.91894822 68.73261443 12 70 C11.30648438 70.46019531 10.61296875 70.92039062 9.8984375 71.39453125 C6.14902569 73.73171967 3.41076334 74.52509087 -1 74 C-2.82700017 72.17299983 -2.13727127 69.28435432 -2.14526367 66.83129883 C-2.14862228 66.18730133 -2.1519809 65.54330383 -2.15544128 64.87979126 C-2.16498222 62.7388519 -2.16689641 60.59799058 -2.16796875 58.45703125 C-2.1711808 56.97067736 -2.17454484 55.4843238 -2.17805481 53.99797058 C-2.18405509 50.87486031 -2.18589396 47.75177774 -2.18530273 44.62866211 C-2.18520144 40.63507487 -2.19881596 36.64166673 -2.21607494 32.64812183 C-2.22722307 29.57424614 -2.22922103 26.50041323 -2.22869301 23.42651939 C-2.22987033 21.95498733 -2.23427821 20.48345406 -2.24202538 19.01194191 C-2.25187558 16.94639423 -2.24892694 14.88122829 -2.24291992 12.81567383 C-2.24505745 11.05481194 -2.24505745 11.05481194 -2.24723816 9.25837708 C-1.99072354 5.87774458 -1.2075029 3.15605386 0 0 Z " fill="#E7E8EB" transform="translate(306,225)"/>
<path d="M0 0 C2.31 0 4.62 0 7 0 C7.33 1.32 7.66 2.64 8 4 C9.093125 3.938125 10.18625 3.87625 11.3125 3.8125 C15 4 15 4 17 5.0625 C18.58495594 8.13335213 17.68036707 10.72186775 17 14 C18.32 14 19.64 14 21 14 C21 16.31 21 18.62 21 21 C19.68 21.33 18.36 21.66 17 22 C17.226875 22.9075 17.45375 23.815 17.6875 24.75 C18 28 18 28 16.5625 30.375 C16.046875 30.91125 15.53125 31.4475 15 32 C12.69 31.67 10.38 31.34 8 31 C7.67 32.32 7.34 33.64 7 35 C4.69 35 2.38 35 0 35 C-0.33 33.68 -0.66 32.36 -1 31 C-1.9075 31.2475 -2.815 31.495 -3.75 31.75 C-7 32 -7 32 -9.4375 30.375 C-11 28 -11 28 -10.75 25.25 C-10.5025 24.5075 -10.255 23.765 -10 23 C-11.32 22.34 -12.64 21.68 -14 21 C-14 19.02 -14 17.04 -14 15 C-12.68 14.67 -11.36 14.34 -10 14 C-10.20625 12.906875 -10.4125 11.81375 -10.625 10.6875 C-11 7 -11 7 -9 4 C-7.0546875 3.70703125 -7.0546875 3.70703125 -4.875 3.8125 C-3.59625 3.874375 -2.3175 3.93625 -1 4 C-0.67 2.68 -0.34 1.36 0 0 Z M2 11 C-0.666508 13.16588845 -0.666508 13.16588845 -3 16 C-3.07748907 19.25454084 -2.47731651 20.46964832 -0.3125 22.875 C2.86249229 24.41959084 4.66802549 24.0140792 8 23 C10.56687367 19.1496895 9.83288724 17.41430237 9 13 C6.69 12.34 4.38 11.68 2 11 Z " fill="#E8E9EB" transform="translate(279,251)"/>
<path d="M0 0 C1.65 0 3.3 0 5 0 C6.25839937 2.51679874 6.12698785 4.24405736 6.12939453 7.06054688 C6.13254669 8.11504028 6.13569885 9.16953369 6.13894653 10.25598145 C6.1369223 11.39869507 6.13489807 12.54140869 6.1328125 13.71875 C6.13376923 14.88756714 6.13472595 16.05638428 6.13571167 17.26062012 C6.13639313 19.73543349 6.13454122 22.21024864 6.13037109 24.68505859 C6.1250224 28.48409012 6.13031728 32.28300342 6.13671875 36.08203125 C6.13605796 38.4817711 6.13477679 40.88151087 6.1328125 43.28125 C6.13584885 44.99532043 6.13584885 44.99532043 6.13894653 46.74401855 C6.13579437 47.79851196 6.13264221 48.85300537 6.12939453 49.93945312 C6.12820114 51.33605164 6.12820114 51.33605164 6.12698364 52.76086426 C6 55 6 55 5 57 C0.125 56.125 0.125 56.125 -1 55 C-1.09868104 53.35338317 -1.12798833 51.70254906 -1.12939453 50.05297852 C-1.13254669 48.99840958 -1.13569885 47.94384064 -1.13894653 46.85731506 C-1.1369223 45.70944016 -1.13489807 44.56156525 -1.1328125 43.37890625 C-1.13376923 42.20867416 -1.13472595 41.03844208 -1.13571167 39.83274841 C-1.13639375 37.35195868 -1.13453752 34.87116718 -1.13037109 32.39038086 C-1.12502803 28.58247889 -1.13031271 24.77469513 -1.13671875 20.96679688 C-1.13605788 18.56249974 -1.13477653 16.15820268 -1.1328125 13.75390625 C-1.13483673 12.60805557 -1.13686096 11.4622049 -1.13894653 10.28163147 C-1.13579437 9.22391037 -1.13264221 8.16618927 -1.12939453 7.07641602 C-1.12859894 6.14233414 -1.12780334 5.20825226 -1.12698364 4.24586487 C-1 2 -1 2 0 0 Z " fill="#EDEFF0" transform="translate(399,170)"/>
<path d="M0 0 C1.67542976 0.28604898 3.34385343 0.61781233 5 1 C5.84274338 11.83527197 6.13065044 22.66709911 6.17724609 33.5324707 C6.18404573 34.96152777 6.19426264 36.39057294 6.20800781 37.81958008 C6.22609247 39.86290898 6.23016918 41.90581834 6.23046875 43.94921875 C6.23457764 45.13862061 6.23868652 46.32802246 6.24291992 47.5534668 C5.97553298 51.34713667 5.16224955 54.39233364 4 58 C0.125 57.125 0.125 57.125 -1 56 C-1.09881593 54.28681054 -1.12798969 52.56955197 -1.12939453 50.85351562 C-1.13412277 49.20675842 -1.13412277 49.20675842 -1.13894653 47.5267334 C-1.1369223 46.33197388 -1.13489807 45.13721436 -1.1328125 43.90625 C-1.13376923 42.68925415 -1.13472595 41.4722583 -1.13571167 40.21838379 C-1.13639372 37.63924101 -1.13453772 35.06009653 -1.13037109 32.48095703 C-1.12502322 28.51721364 -1.13031529 24.55358358 -1.13671875 20.58984375 C-1.13605797 18.09114558 -1.13477682 15.59244748 -1.1328125 13.09375 C-1.13483673 11.89899048 -1.13686096 10.70423096 -1.13894653 9.4732666 C-1.13579437 8.37542847 -1.13264221 7.27759033 -1.12939453 6.14648438 C-1.12859894 5.1746521 -1.12780334 4.20281982 -1.12698364 3.20153809 C-1 1 -1 1 0 0 Z " fill="#E6E8EA" transform="translate(383,180)"/>
<path d="M0 0 C1.67542976 0.28604898 3.34385343 0.61781233 5 1 C6.29633493 19.07924251 6.20981889 36.91752844 5 55 C2.03 55.495 2.03 55.495 -1 56 C-1.02526563 48.18547248 -1.04283105 40.37095542 -1.05493164 32.55639648 C-1.05997383 29.89558519 -1.06680736 27.23477668 -1.07543945 24.57397461 C-1.08751009 20.75894484 -1.09322929 16.94395156 -1.09765625 13.12890625 C-1.10281754 11.93100967 -1.10797882 10.7331131 -1.11329651 9.49891663 C-1.11337204 8.3978508 -1.11344757 7.29678497 -1.11352539 6.16235352 C-1.115746 5.18750504 -1.11796661 4.21265656 -1.12025452 3.20826721 C-1 1 -1 1 0 0 Z " fill="#EEF0F2" transform="translate(391,177)"/>
<path d="M0 0 C-2.82919491 3.85494567 -5.66114383 6.40456544 -9.625 9.0625 C-10.17260986 9.43173584 -10.72021973 9.80097168 -11.28442383 10.18139648 C-12.50223293 11.00069863 -13.72250544 11.81634745 -14.94482422 12.62890625 C-17.23401318 14.15611998 -19.50964381 15.70248845 -21.78515625 17.25 C-23.41887039 18.35475907 -25.05298195 19.45893068 -26.6875 20.5625 C-27.47785645 21.0994751 -28.26821289 21.6364502 -29.08251953 22.18969727 C-29.82228027 22.68526123 -30.56204102 23.1808252 -31.32421875 23.69140625 C-31.98510498 24.13685791 -32.64599121 24.58230957 -33.3269043 25.04125977 C-35 26 -35 26 -37 26 C-37.33 23.69 -37.66 21.38 -38 19 C-31.72237793 14.89586797 -25.39743778 11.00906077 -18.7734375 7.48828125 C-16.84533021 6.45362086 -14.93476313 5.38587267 -13.0390625 4.29296875 C-11.59660156 3.46732422 -11.59660156 3.46732422 -10.125 2.625 C-9.26132812 2.12226563 -8.39765625 1.61953125 -7.5078125 1.1015625 C-4.78712289 -0.09350677 -2.93774804 -0.22112082 0 0 Z " fill="#E2E3E6" transform="translate(400,239)"/>
<path d="M0 0 C0.7425 0.2475 1.485 0.495 2.25 0.75 C2.25 2.07 2.25 3.39 2.25 4.75 C1.26 5.245 1.26 5.245 0.25 5.75 C-0.93205463 10.94657978 -0.86286 16.44558018 -0.75 21.75 C0.24 21.75 1.23 21.75 2.25 21.75 C2.25 23.07 2.25 24.39 2.25 25.75 C0.5625 26.5625 0.5625 26.5625 -1.75 26.75 C-4.5 24.75 -4.5 24.75 -6.75 21.75 C-7.0625 17.9375 -7.0625 17.9375 -6.75 14.75 C-7.41 14.75 -8.07 14.75 -8.75 14.75 C-7.44723954 4.80788068 -7.44723954 4.80788068 -4.9375 1 C-2.75 -0.25 -2.75 -0.25 0 0 Z " fill="#E3E5E6" transform="translate(225.75,170.25)"/>
<path d="M0 0 C2.6664882 -0.21620175 4.44004321 -0.30894168 6.8125 1 C8.73618446 4.23988962 8.18282384 7.2825819 8 11 C8.66 11 9.32 11 10 11 C9.67702486 12.66870487 9.33986667 14.33465333 9 16 C8.8659375 16.74765625 8.731875 17.4953125 8.59375 18.265625 C8.4390625 19.06484375 8.284375 19.8640625 8.125 20.6875 C7.98320312 21.45449219 7.84140625 22.22148437 7.6953125 23.01171875 C7 25 7 25 4 27 C1.8125 26.625 1.8125 26.625 0 26 C0 24.68 0 23.36 0 22 C0.66 22 1.32 22 2 22 C2.22184605 15.87458401 1.85139262 10.90131398 0 5 C-0.125 2.0625 -0.125 2.0625 0 0 Z " fill="#DCDDE2" transform="translate(232,170)"/>
<path d="M0 0 C-3.08214656 4.29516959 -6.40902288 6.94554698 -10.75 9.8125 C-11.35199219 10.21919922 -11.95398438 10.62589844 -12.57421875 11.04492188 C-14.04477191 12.0369617 -15.52174159 13.01947888 -17 14 C-19.46800047 12.84826645 -21.04783565 11.95216435 -23 10 C-5.59556787 -0.69944598 -5.59556787 -0.69944598 0 0 Z " fill="#D1D4D9" transform="translate(400,239)"/>
<path d="M0 0 C0.7425 0.2475 1.485 0.495 2.25 0.75 C2.25 2.07 2.25 3.39 2.25 4.75 C1.26 5.245 1.26 5.245 0.25 5.75 C-0.40772428 8.77934491 -0.40772428 8.77934491 -0.75 11.75 C-1.08 11.75 -1.41 11.75 -1.75 11.75 C-2.08 9.77 -2.41 7.79 -2.75 5.75 C-3.08 6.41 -3.41 7.07 -3.75 7.75 C-4.41 7.75 -5.07 7.75 -5.75 7.75 C-5.440625 8.6471875 -5.440625 8.6471875 -5.125 9.5625 C-4.75 11.75 -4.75 11.75 -6.75 14.75 C-7.41 14.75 -8.07 14.75 -8.75 14.75 C-7.44723954 4.80788068 -7.44723954 4.80788068 -4.9375 1 C-2.75 -0.25 -2.75 -0.25 0 0 Z M-4.75 8.75 C-3.76 9.245 -3.76 9.245 -2.75 9.75 C-3.74 10.245 -3.74 10.245 -4.75 10.75 C-4.75 10.09 -4.75 9.43 -4.75 8.75 Z " fill="#CCD0D3" transform="translate(225.75,170.25)"/>
<path d="M0 0 C0.99 0.33 1.98 0.66 3 1 C0.84577853 3.36964362 -1.15961028 4.57980514 -4 6 C-5.70921589 7.5412312 -5.70921589 7.5412312 -7 9 C-7.66 8.01 -8.32 7.02 -9 6 C-7.57140593 4.96674014 -6.13177617 3.94872366 -4.6875 2.9375 C-3.88699219 2.36902344 -3.08648437 1.80054688 -2.26171875 1.21484375 C-1.51535156 0.81394531 -0.76898438 0.41304687 0 0 Z " fill="#D0D2D4" transform="translate(388,162)"/>
<path d="M0 0 C0.66 0.33 1.32 0.66 2 1 C2 1.99 2 2.98 2 4 C1.34 4 0.68 4 0 4 C0.33 5.65 0.66 7.3 1 9 C0.01 9.495 0.01 9.495 -1 10 C-2.25 3.375 -2.25 3.375 0 0 Z " fill="#B9C0C8" transform="translate(270,255)"/>
<path d="M0 0 C0 1.32 0 2.64 0 4 C-1.98 4.33 -3.96 4.66 -6 5 C-4.87312259 1.61936778 -3.78825335 0 0 0 Z " fill="#CBD0D7" transform="translate(396,228)"/>
<path d="M0 0 C-0.5775 0.2475 -1.155 0.495 -1.75 0.75 C-4.13449889 1.93990475 -4.13449889 1.93990475 -6.125 4.125 C-6.74375 4.74375 -7.3625 5.3625 -8 6 C-8.66 6 -9.32 6 -10 6 C-8.09258661 0.27775983 -5.91019817 -0.39401321 0 0 Z " fill="#BCC1C9" transform="translate(237,209)"/>
<path d="M0 0 C0.99 0.33 1.98 0.66 3 1 C2.34 1.66 1.68 2.32 1 3 C0.53837573 5.43252661 0.53837573 5.43252661 0.375 8.125 C0.30023438 9.03507813 0.22546875 9.94515625 0.1484375 10.8828125 C0.09945313 11.58148438 0.05046875 12.28015625 0 13 C-0.33 13 -0.66 13 -1 13 C-1.02686553 11.02090602 -1.04633375 9.04171029 -1.0625 7.0625 C-1.07410156 5.96035156 -1.08570313 4.85820312 -1.09765625 3.72265625 C-1 1 -1 1 0 0 Z " fill="#A3A7AF" transform="translate(391,177)"/>
<path d="M0 0 C1.2065625 0.0309375 1.2065625 0.0309375 2.4375 0.0625 C0.21815836 3.39151247 -0.90933329 3.81273244 -4.5625 5.0625 C-3.43829114 0.08386076 -3.43829114 0.08386076 0 0 Z " fill="#C9CED1" transform="translate(265.5625,199.9375)"/>
</svg>
